<?xml version="1.0" standalone="no"?>
<!DOCTYPE svg PUBLIC "-//W3C//DTD SVG 1.1//EN" "http://www.w3.org/Graphics/SVG/1.1/DTD/svg11.dtd">
<svg xmlns="http://www.w3.org/2000/svg">
<defs >
<font id="Anuphan" horiz-adv-x="587" ><font-face
    font-family="Anuphan Light"
    units-per-em="1000"
    panose-1="0 0 0 0 0 0 0 0 0 0"
    ascent="1025"
    descent="-275"
    alphabetic="0" />
<glyph unicode=" " horiz-adv-x="236" />
<glyph unicode="!" horiz-adv-x="273" d="M121 182L104 468V698H170V468L152 182H121ZM137 -10Q112 -10 100 3T87 37V49Q87 70 99 83T137 96Q163 96 174 83T186 49V37Q186 16 174 3T137 -10Z" />
<glyph unicode="&quot;" horiz-adv-x="404" d="M259 470V740H314V470H259ZM90 470V740H145V470H90Z" />
<glyph unicode="#" horiz-adv-x="713" d="M162 0L199 210H63V256H207L238 442H102V488H246L282 698H332L296 488H460L496 698H546L510 488H645V442H501L470 256H606V210H463L426 0H376L413 210H248L212 0H162ZM256 256H421L452 442H287L256 256Z" />
<glyph unicode="$" horiz-adv-x="581" d="M269 -82V0Q191 4 139 36T49 117L94 157Q127 113 169 86T270 54V336Q164 358 116 401T68 522Q68 604 124 648T269 698V780H317V699Q386 694 434 666T516 592L469 557Q443 594 406 616T317 644V385Q427 362 474 319T522
195Q522 109 467 58T317 0V-82H269ZM317 54Q385 60 423 95T462 191Q462 250 429 280T317 327V54ZM270 394V644Q205 639 167 610T128 526Q128 487 143 463T189 422T270 394Z" />
<glyph unicode="%" horiz-adv-x="912" d="M184 0L668 698H727L243 0H184ZM221 318Q175 318 141 340T87 405T68 514Q68 580 87 623T140 688T221 710Q268 710 302 688T355 623T374 514Q374 449 355 406T302 340T221 318ZM221 358Q251 358 272 372T306 415T318 489V539Q318
584 306 613T273 656T221 670Q191 670 170 656T136 613T124 539V489Q124 444 136 415T169 372T221 358ZM691 -12Q645 -12 611 10T557 75T538 184Q538 250 557 293T610 358T691 380Q738 380 772 358T825 293T844 184Q844 119 825 76T772 10T691 -12ZM691 28Q721
28 742 42T776 85T788 159V209Q788 254 776 283T743 326T691 340Q661 340 640 326T606 283T594 209V159Q594 114 606 85T639 42T691 28Z" />
<glyph unicode="&amp;" horiz-adv-x="688" d="M281 -12Q215 -12 168 12T96 80T71 176Q71 229 93 266T149 329T223 376Q183 418 160 458T137 546Q137 593 159 630T221 688T314 710Q364 710 401 691T459 639T480 563Q480 517 458 483T396 421T308 367L486 182Q501
221 509 267T518 362H645V310H568Q563 263 552 221T524 142L659 0H580L492 93Q475 69 447 45T378 4T281 -12ZM286 41Q344 41 386 64T457 130L256 341Q223 324 196 305T151 257T134 187V170Q134 111 176 76T286 41ZM274 401Q314 421 347 443T400 493T421 551V563Q421
594 406 615T366 647T312 659Q260 659 229 629T198 554V540Q198 506 219 472T274 401Z" />
<glyph unicode="&apos;" horiz-adv-x="235" d="M90 470V740H145V470H90Z" />
<glyph unicode="(" horiz-adv-x="334" d="M272 -137Q224 -95 183 -28T116 126T90 312Q90 410 115 496T181 649T272 760H331Q278 712 237 645T171 501T147 345V277Q147 199 171 122T237 -23T331 -137H272Z" />
<glyph unicode=")" horiz-adv-x="334" d="M3 -137Q55 -91 96 -24T162 121T187 277V345Q187 423 163 500T98 645T3 760H62Q111 717 152 650T219 496T244 312Q244 213 219 127T152 -27T62 -137H3Z" />
<glyph unicode="*" horiz-adv-x="421" d="M125 404L82 435L175 555L30 596L46 647L188 597L184 747H237L232 597L374 647L391 596L246 555L338 435L296 404L210 529L125 404Z" />
<glyph unicode="+" horiz-adv-x="600" d="M271 62V279H65V331H271V548H329V331H535V279H329V62H271Z" />
<glyph unicode="," horiz-adv-x="261" d="M43 -138Q76 -104 93 -72T118 -8Q98 -4 90 7T81 35V48Q81 69 93 82T131 96Q157 96 168 83T180 48V34Q180 -6 157 -54T94 -138H43Z" />
<glyph unicode="-" horiz-adv-x="398" d="M74 272V336H324V272H74Z" />
<glyph unicode="." horiz-adv-x="261" d="M131 -10Q106 -10 94 3T81 37V49Q81 70 93 83T131 96Q157 96 168 83T180 49V37Q180 17 169 4T131 -10Z" />
<glyph unicode="/" horiz-adv-x="360" d="M10 -151L264 740H318L65 -151H10Z" />
<glyph unicode="0" horiz-adv-x="600" d="M300 -12Q180 -12 122 79T64 349Q64 527 122 618T300 710Q420 710 478 619T536 349Q536 171 478 80T300 -12ZM300 43Q359 43 396 74T451 164T470 300V398Q470 477 452 534T396 623T300 655Q242 655 205 624T149 535T130
398V300Q130 222 148 164T204 75T300 43Z" />
<glyph unicode="1" horiz-adv-x="600" d="M90 0V56H293V651H287L98 482L61 522L256 698H356V56H546V0H90Z" />
<glyph unicode="2" horiz-adv-x="600" d="M79 0V65L321 295Q370 342 401 393T433 496V514Q433 575 398 614T291 653Q222 653 185 618T132 528L75 549Q89 592 115 628T186 687T293 710Q360 710 406 685T476 615T500 510Q500 459 483 416T434 334T359 255L148 56H529V0H79Z" />
<glyph unicode="3" horiz-adv-x="600" d="M273 -12Q217 -12 176 3T104 45T51 103L99 139Q128 94 167 70T272 45Q349 45 391 82T433 185V199Q433 264 392 301T272 338H185V393H267Q340 393 379 429T419 519V532Q419 590 381 621T281 653Q222 653 186 629T127 562L80
597Q96 627 123 652T189 694T282 710Q341 710 387 689T459 629T486 535Q486 465 447 424T350 370V366Q391 360 425 338T479 279T500 190Q500 129 472 84T393 14T273 -12Z" />
<glyph unicode="4" horiz-adv-x="600" d="M387 0V145H41V201L356 698H447V198H554V145H447V0H387ZM101 198H387V645H383L101 198Z" />
<glyph unicode="5" horiz-adv-x="600" d="M296 -12Q241 -12 201 3T131 45T79 103L127 139Q156 94 193 70T296 45Q372 45 413 87T454 201V217Q454 290 414 331T298 373Q245 373 215 356T159 310L104 318L129 698H492V642H181L159 353H165Q183 378 204 394T252 419T316
428Q377 428 423 402T496 329T522 214Q522 146 495 96T417 17T296 -12Z" />
<glyph unicode="6" horiz-adv-x="600" d="M301 -12Q227 -12 177 20T100 111T74 246Q74 326 96 395T155 521T237 623T331 698H413Q337 645 283 591T193 473T140 328L145 326Q162 357 186 380T243 415T318 428Q379 428 426 403T499 329T526 214Q526 147 498 96T420
17T301 -12ZM300 43Q350 43 385 62T440 117T460 201V217Q460 265 441 300T386 355T300 374Q249 374 214 355T159 301T140 217V202Q140 153 159 118T214 63T300 43Z" />
<glyph unicode="7" horiz-adv-x="600" d="M179 0L458 643H129V501H72V698H522V642L247 0H179Z" />
<glyph unicode="8" horiz-adv-x="600" d="M300 -12Q224 -12 171 13T91 84T63 187Q63 259 102 303T208 363V370Q151 387 118 430T85 535Q85 615 142 662T300 710Q401 710 458 663T515 535Q515 473 482 430T392 370V363Q458 348 497 304T537 187Q537 129 510 84T430
14T300 -12ZM300 43Q380 43 425 80T470 180V203Q470 266 425 303T300 340Q220 340 175 303T130 203V180Q130 117 175 80T300 43ZM300 393Q371 393 410 425T449 515V533Q449 590 410 622T300 655Q229 655 190 623T151 533V515Q151 458 190 426T300 393Z" />
<glyph unicode="9" horiz-adv-x="600" d="M188 0Q265 54 319 107T408 225T461 370L456 372Q440 341 416 318T359 283T283 270Q222 270 175 295T102 369T75 484Q75 552 103 602T181 681T300 710Q374 710 424 678T501 588T527 452Q527 372 505 303T446 177T364 75T270
0H188ZM301 324Q352 324 387 343T442 397T461 481V496Q461 545 442 580T387 635T301 655Q251 655 216 636T161 581T141 497V481Q141 433 160 398T215 343T301 324Z" />
<glyph unicode=":" horiz-adv-x="281" d="M141 417Q116 417 104 430T91 464V475Q91 497 103 509T141 522Q167 522 178 510T190 475V464Q190 443 179 430T141 417ZM141 -10Q116 -10 104 3T91 37V49Q91 70 103 83T141 96Q167 96 178 83T190 49V37Q190 17 179 4T141 -10Z" />
<glyph unicode=";" horiz-adv-x="281" d="M53 -138Q86 -104 103 -72T128 -8Q108 -4 100 7T91 35V48Q91 69 103 82T141 96Q167 96 178 83T190 48V34Q190 -6 167 -54T104 -138H53ZM141 417Q116 417 104 430T91 464V475Q91 497 103 509T141 522Q167 522 178 510T190
475V464Q190 443 179 430T141 417Z" />
<glyph unicode="&lt;" horiz-adv-x="600" d="M512 5L88 257V316L512 568V504L146 289V283L512 68V5Z" />
<glyph unicode="=" horiz-adv-x="600" d="M65 376V428H535V376H65ZM65 184V235H535V184H65Z" />
<glyph unicode="&gt;" horiz-adv-x="600" d="M88 5V68L454 283V289L88 504V568L512 316V257L88 5Z" />
<glyph unicode="?" horiz-adv-x="470" d="M185 197V364Q272 368 320 407T369 513V531Q369 587 333 621T236 655Q173 655 136 621T84 531L28 552Q41 596 67 632T136 689T238 710Q299 710 342 687T410 623T434 524Q434 462 408 420T338 353T244 321V197H185ZM215
-10Q190 -10 178 3T165 37V49Q165 70 177 83T215 96Q241 96 253 83T265 49V37Q265 16 253 3T215 -10Z" />
<glyph unicode="@" horiz-adv-x="887" d="M445 -121Q334 -121 249 -71T115 72T67 292Q67 417 115 510T251 656T451 709Q524 709 590 687T708 617T790 498T821 325Q821 255 805 197T752 104T657 69Q613 69 589 92T559 153H555Q538 117 507 93T427 69Q379 69 340
93T277 166T254 288Q254 363 277 411T339 484T427 509Q476 509 505 486T548 432H552V499H605V185Q605 148 620 132T666 116Q715 116 742 167T769 308V355Q769 448 727 517T613 624T451 663Q378 663 317 637T212 565T144 457T119 323V266Q119 191 142 129T209 21T313
-49T445 -74H678V-121H445ZM437 119Q472 119 498 132T538 168T552 225V356Q552 386 538 409T499 445T437 459Q377 459 347 422T317 321V255Q317 193 347 156T437 119Z" />
<glyph unicode="A" horiz-adv-x="627" d="M26 0L273 698H354L601 0H535L460 215H165L90 0H26ZM181 271H444L314 638H310L181 271Z" />
<glyph unicode="B" horiz-adv-x="640" d="M98 0V698H373Q455 698 502 651T550 521Q550 472 534 441T493 393T442 370V366Q466 363 489 352T533 320T565 270T577 198Q577 141 555 96T492 26T399 0H98ZM161 56H381Q423 56 451 71T494 114T509 177V214Q509 250 494
277T451 320T381 335H161V56ZM161 390H367Q404 390 429 404T468 442T482 498V534Q482 566 469 590T430 628T367 642H161V390Z" />
<glyph unicode="C" horiz-adv-x="617" d="M336 -12Q250 -12 189 28T95 148T62 346Q62 464 94 545T188 668T336 710Q419 710 477 670T568 560L516 530Q493 587 448 620T336 653Q239 653 185 583T130 388V305Q130 180 184 113T336 45Q405 45 452 80T522 175L573
145Q542 73 481 31T336 -12Z" />
<glyph unicode="D" horiz-adv-x="667" d="M98 0V698H322Q411 698 474 660T571 544T605 349Q605 233 572 155T475 39T322 0H98ZM161 56H322Q390 56 438 85T511 170T537 301V397Q537 473 512 528T438 612T322 642H161V56Z" />
<glyph unicode="E" horiz-adv-x="576" d="M98 0V698H509V642H161V381H492V325H161V56H509V0H98Z" />
<glyph unicode="F" horiz-adv-x="551" d="M98 0V698H500V642H161V381H476V325H161V0H98Z" />
<glyph unicode="G" horiz-adv-x="685" d="M345 -12Q260 -12 196 29T97 150T62 349Q62 466 97 546T197 668T350 710Q440 710 502 669T596 560L543 529Q518 587 468 620T350 653Q284 653 234 622T157 533T130 394V305Q130 224 157 166T235 76T355 45Q408 45 451
63T522 119T549 213V294H387V350H611V0H552V106H549Q531 53 479 21T345 -12Z" />
<glyph unicode="H" horiz-adv-x="702" d="M98 0V698H161V381H541V698H604V0H541V325H161V0H98Z" />
<glyph unicode="I" horiz-adv-x="391" d="M63 0V53H164V645H63V698H328V645H227V53H328V0H63Z" />
<glyph unicode="J" horiz-adv-x="495" d="M212 -12Q137 -12 89 29T26 136L83 150Q94 104 126 75T213 45Q274 45 306 82T339 192V642H97V698H403V182Q403 121 379 78T312 11T212 -12Z" />
<glyph unicode="K" horiz-adv-x="613" d="M98 0V698H161V308H164L274 436L501 698H579L316 400L592 0H514L272 358L161 235V0H98Z" />
<glyph unicode="L" horiz-adv-x="492" d="M98 0V698H161V56H468V0H98Z" />
<glyph unicode="M" horiz-adv-x="807" d="M98 0V698H184L402 307H407L626 698H709V0H647V616H643L570 483L403 190L237 483L164 616H160V0H98Z" />
<glyph unicode="N" horiz-adv-x="702" d="M98 0V698H173L422 289L539 87H542V698H604V0H529L253 453L163 611H160V0H98Z" />
<glyph unicode="O" horiz-adv-x="699" d="M349 -12Q260 -12 196 29T97 150T62 349Q62 467 97 547T196 669T349 710Q438 710 502 669T602 548T637 349Q637 231 602 151T503 29T349 -12ZM349 45Q416 45 465 76T541 164T569 303V395Q569 476 542 534T465 622T349
653Q284 653 235 623T158 534T130 395V303Q130 222 157 165T234 76T349 45Z" />
<glyph unicode="P" horiz-adv-x="602" d="M98 0V698H373Q434 698 476 674T539 606T561 502Q561 442 540 398T476 330T373 306H161V0H98ZM161 362H373Q412 362 438 376T479 417T493 478V526Q493 560 479 586T439 627T373 642H161V362Z" />
<glyph unicode="Q" horiz-adv-x="699" d="M390 -158Q357 -158 341 -140T324 -94V-11Q202 -3 132 89T62 349Q62 467 97 547T196 669T349 710Q438 710 502 669T602 548T637 349Q637 184 570 93T385 -10V-105H491V-158H390ZM349 45Q416 45 465 76T541 164T569 303V395Q569
476 542 534T465 622T349 653Q284 653 235 623T158 534T130 395V303Q130 222 157 165T234 76T349 45Z" />
<glyph unicode="R" horiz-adv-x="637" d="M98 0V698H373Q432 698 474 675T538 609T561 503Q561 424 522 374T409 313L579 0H508L343 307H161V0H98ZM161 362H373Q412 362 438 376T479 417T493 478V526Q493 560 479 586T439 627T373 642H161V362Z" />
<glyph unicode="S" horiz-adv-x="570" d="M285 -12Q200 -12 142 20T42 107L89 146Q126 98 172 71T287 44Q367 44 410 82T453 188Q453 230 437 256T390 298T313 323L252 336Q187 350 145 375T82 437T61 524Q61 585 89 626T169 689T286 710Q365 710 419 682T509
602L461 567Q432 609 389 631T283 654Q209 654 167 622T124 526Q124 486 141 461T190 420T265 396L327 383Q396 368 437 342T497 278T516 191Q516 128 488 83T408 13T285 -12Z" />
<glyph unicode="T" horiz-adv-x="568" d="M252 0V642H20V698H548V642H316V0H252Z" />
<glyph unicode="U" horiz-adv-x="669" d="M333 -12Q243 -12 191 18T115 114T92 281V698H155V267Q155 191 172 142T228 69T335 45Q402 45 441 68T497 141T514 267V698H577V281Q577 179 554 114T477 19T333 -12Z" />
<glyph unicode="V" horiz-adv-x="596" d="M258 0L23 698H91L211 337L296 64H300L387 338L507 698H573L336 0H258Z" />
<glyph unicode="W" horiz-adv-x="885" d="M199 0L23 698H91L169 366L238 78H240L316 366L405 698H479L566 367L642 78H645L710 348L796 698H861L680 0H608L517 340L442 627H439L363 340L271 0H199Z" />
<glyph unicode="X" horiz-adv-x="595" d="M25 0L257 355L32 698H108L297 405H299L490 698H562L337 358L569 0H493L297 307H295L98 0H25Z" />
<glyph unicode="Y" horiz-adv-x="577" d="M256 0V282L16 698H88L287 348H290L490 698H562L319 284V0H256Z" />
<glyph unicode="Z" horiz-adv-x="572" d="M37 0V58L453 642H59V698H522V640L105 56H538V0H37Z" />
<glyph unicode="[" horiz-adv-x="312" d="M98 -138V760H249V712H151V-90H249V-138H98Z" />
<glyph unicode="\" horiz-adv-x="360" d="M291 -151L40 740H95L345 -151H291Z" />
<glyph unicode="]" horiz-adv-x="312" d="M63 -138V-90H161V712H63V760H214V-138H63Z" />
<glyph unicode="^" horiz-adv-x="600" d="M103 305L56 329L268 698H332L544 329L497 305L302 641H298L103 305Z" />
<glyph unicode="_" horiz-adv-x="566" d="M30 -157V-104H536V-157H30Z" />
<glyph unicode="`" horiz-adv-x="600" d="M301 586L192 742L247 770L341 605L301 586Z" />
<glyph unicode="a" horiz-adv-x="529" d="M219 -12Q139 -12 95 28T50 139Q50 186 71 219T139 270T260 288H375V347Q375 410 343 441T246 472Q196 472 162 451T107 389L69 422Q90 466 134 495T248 525Q338 525 386 480T435 353V53H503V0H447Q414 0 398 17T379 62L378
82H374Q357 38 318 13T219 -12ZM228 40Q270 40 303 53T355 91T375 149V242H257Q182 242 148 219T113 153V129Q113 86 145 63T228 40Z" />
<glyph unicode="b" horiz-adv-x="575" d="M311 -12Q253 -12 215 13T156 82H152V0H92V740H152V431H156Q174 474 213 499T311 525Q377 525 424 493T496 401T522 256Q522 172 497 112T424 20T311 -12ZM296 42Q372 42 414 90T457 219V294Q457 374 415 422T296 470Q258
470 225 456T172 417T152 359V158Q152 122 172 96T225 56T296 42Z" />
<glyph unicode="c" horiz-adv-x="498" d="M275 -12Q169 -12 110 59T51 256Q51 383 110 454T275 525Q346 525 391 493T458 411L408 385Q390 426 357 448T275 471Q197 471 157 422T116 294V219Q116 140 156 91T275 42Q327 42 363 65T421 131L465 101Q440 50 393
19T275 -12Z" />
<glyph unicode="d" horiz-adv-x="575" d="M264 -12Q199 -12 152 20T79 112T53 256Q53 341 78 401T151 493T264 525Q322 525 361 500T419 431H423V740H483V0H423V82H419Q399 39 361 14T264 -12ZM279 42Q318 42 350 56T403 96T423 158V359Q423 392 403 417T351 456T279
470Q204 470 161 422T118 294V219Q118 139 161 91T279 42Z" />
<glyph unicode="e" horiz-adv-x="544" d="M277 -12Q208 -12 158 20T79 113T51 256Q51 340 79 400T157 492T275 525Q342 525 390 493T465 404T492 273V244H115V219Q115 140 158 91T280 41Q334 41 373 67T433 142L477 112Q453 57 402 23T277 -12ZM115 290H427V299Q427
352 408 391T355 452T275 474Q227 474 191 452T135 389T115 296V290Z" />
<glyph unicode="f" horiz-adv-x="311" d="M116 0V460H29V513H116V650Q116 691 137 715T201 740H289V687H177V513H289V460H177V0H116Z" />
<glyph unicode="g" horiz-adv-x="528" d="M267 -212Q149 -212 97 -178T45 -84Q45 -41 68 -15T133 23V31Q109 41 97 58T85 101Q85 139 110 159T172 190V194Q127 215 102 255T77 350Q77 402 100 441T165 503T264 525Q294 525 319 519T367 500V523Q367 547 378 562T416
578H501V525H399V478Q425 455 439 422T453 350Q453 298 430 259T364 197T265 175Q251 175 238 176T213 180Q181 172 159 157T137 116Q137 93 157 82T219 71H337Q430 71 472 36T514 -60Q514 -112 486 -146T403 -196T267 -212ZM233 -162H298Q371 -162 413 -138T456
-64Q456 -28 430 -7T337 14H171Q138 3 121 -18T103 -71Q103 -110 135 -136T233 -162ZM265 224Q323 224 356 253T389 334V365Q389 418 356 447T265 476Q207 476 174 447T141 365V334Q141 282 174 253T265 224Z" />
<glyph unicode="h" horiz-adv-x="564" d="M92 0V740H152V431H156Q173 472 208 498T306 525Q387 525 433 474T479 329V0H419V318Q419 395 386 432T289 470Q254 470 223 458T172 422T152 359V0H92Z" />
<glyph unicode="i" horiz-adv-x="244" d="M92 0V513H152V0H92ZM122 649Q101 649 91 659T81 686V697Q81 713 91 723T122 734Q143 734 152 724T162 697V686Q162 670 153 660T122 649Z" />
<glyph unicode="j" horiz-adv-x="244" d="M7 -200V-147H92V513H152V-110Q152 -151 132 -175T68 -200H7ZM122 649Q101 649 91 659T81 686V697Q81 713 91 723T122 734Q143 734 152 724T162 697V686Q162 670 153 660T122 649Z" />
<glyph unicode="k" horiz-adv-x="515" d="M92 0V740H152V254H156L235 339L401 513H475L276 305L497 0H424L233 268L152 186V0H92Z" />
<glyph unicode="l" horiz-adv-x="265" d="M158 0Q126 0 109 18T92 65V740H152V53H231V0H158Z" />
<glyph unicode="m" horiz-adv-x="875" d="M92 0V513H152V431H156Q172 469 204 497T299 525Q354 525 396 499T458 417H460Q474 462 513 493T620 525Q701 525 745 474T790 329V0H730V319Q730 395 699 432T603 470Q569 470 539 458T490 421T471 359V0H411V319Q411
395 380 432T285 470Q251 470 221 458T171 422T152 359V0H92Z" />
<glyph unicode="n" horiz-adv-x="564" d="M92 0V513H152V431H156Q173 472 208 498T306 525Q387 525 433 474T479 329V0H419V318Q419 395 386 432T289 470Q254 470 223 458T172 422T152 359V0H92Z" />
<glyph unicode="o" horiz-adv-x="553" d="M277 -12Q209 -12 158 20T79 113T51 256Q51 340 79 400T158 492T277 525Q345 525 395 493T474 400T502 256Q502 173 474 113T396 21T277 -12ZM277 42Q350 42 393 88T437 224V289Q437 378 394 424T277 471Q204 471 160
425T116 289V224Q116 135 160 89T277 42Z" />
<glyph unicode="p" horiz-adv-x="575" d="M92 -200V513H152V431H156Q174 474 213 499T311 525Q377 525 424 493T496 401T522 256Q522 172 497 112T424 20T311 -12Q253 -12 215 13T156 82H152V-200H92ZM296 42Q372 42 414 90T457 219V294Q457 374 415 422T296 470Q258
470 225 456T172 417T152 359V158Q152 122 172 96T225 56T296 42Z" />
<glyph unicode="q" horiz-adv-x="575" d="M423 -200V82H419Q399 39 361 14T264 -12Q199 -12 152 20T79 112T53 256Q53 341 78 401T151 493T264 525Q322 525 361 500T419 431H423V513H483V-200H423ZM279 42Q318 42 350 56T403 96T423 158V359Q423 392 403 417T351
456T279 470Q204 470 161 422T118 294V219Q118 139 161 91T279 42Z" />
<glyph unicode="r" horiz-adv-x="358" d="M92 0V513H152V420H156Q166 445 185 466T234 500T308 513H343V453H297Q254 453 222 441T171 405T152 350V0H92Z" />
<glyph unicode="s" horiz-adv-x="479" d="M239 -12Q171 -12 123 13T40 86L84 121Q116 81 154 61T243 40Q300 40 331 64T363 135Q363 174 340 197T261 229L219 235Q173 242 137 258T80 304T60 380Q60 453 110 489T236 525Q279 525 311 515T367 487T412 445L371
408Q352 433 319 453T232 473Q179 473 149 450T118 383Q118 340 145 320T227 291L268 284Q347 272 384 238T422 141Q422 93 400 59T336 7T239 -12Z" />
<glyph unicode="t" horiz-adv-x="337" d="M184 0Q152 0 135 18T118 66V460H29V513H85Q107 513 115 522T123 552V656H178V513H294V460H178V53H286V0H184Z" />
<glyph unicode="u" horiz-adv-x="563" d="M258 -12Q177 -12 131 39T84 184V513H144V194Q144 118 177 80T274 42Q310 42 341 54T391 91T411 154V513H471V0H411V81H407Q393 45 359 17T258 -12Z" />
<glyph unicode="v" horiz-adv-x="479" d="M204 0L20 513H81L175 249L238 64H242L304 249L400 513H458L274 0H204Z" />
<glyph unicode="w" horiz-adv-x="754" d="M176 0L32 513H92L147 302L213 54H215L274 260L350 513H405L481 262L541 54H544L609 303L664 513H721L579 0H504L423 273L377 427H375L330 272L249 0H176Z" />
<glyph unicode="x" horiz-adv-x="495" d="M25 0L215 258L32 513H103L247 306H250L398 513H465L283 262L469 0H399L251 214H248L93 0H25Z" />
<glyph unicode="y" horiz-adv-x="483" d="M79 -200V-147H164L212 -16L20 513H80L198 183L238 62H243L285 181L404 513H464L225 -140Q217 -163 207 -176T179 -194T134 -200H79Z" />
<glyph unicode="z" horiz-adv-x="448" d="M31 0V52L339 460H40V513H411V466L99 53H419V0H31Z" />
<glyph unicode="{" horiz-adv-x="334" d="M182 -138Q151 -138 136 -120T120 -75V190Q120 233 93 255T23 277V345Q66 345 93 367T120 432V697Q120 725 135 742T182 760H271V712H173V438Q173 392 146 358T76 319V303Q119 298 146 265T173 184V-90H271V-138H182Z" />
<glyph unicode="|" horiz-adv-x="288" d="M118 -138V760H170V-138H118Z" />
<glyph unicode="}" horiz-adv-x="334" d="M63 -138V-90H161V184Q161 231 187 264T257 303V319Q214 324 188 358T161 438V712H63V760H152Q183 760 198 743T214 697V432Q214 389 241 367T311 345V277Q268 277 241 255T214 190V-75Q214 -102 199 -120T152 -138H63Z" />
<glyph unicode="~" horiz-adv-x="600" d="M421 243Q387 243 359 253T291 280Q258 296 232 305T176 315Q150 315 131 307T89 280L62 314Q84 339 111 353T179 367Q214 367 242 357T309 329Q342 314 368 304T424 294Q450 294 469 302T511 329L538 295Q516 270 489
257T421 243Z" />
<glyph unicode="&#xa0;" horiz-adv-x="236" />
<glyph unicode="&#xa1;" horiz-adv-x="273" d="M103 -185V44L121 331H151L169 44V-185H103ZM137 417Q112 417 100 430T87 464V475Q87 497 99 509T137 522Q162 522 174 510T186 475V464Q186 443 175 430T137 417Z" />
<glyph unicode="&#xa2;" horiz-adv-x="508" d="M241 -114V-10Q151 1 101 70T51 256Q51 373 101 442T241 522V627H294V524Q355 520 395 490T458 412L409 386Q392 424 364 445T294 470V42Q339 46 370 68T421 130L465 101Q442 53 400 23T294 -11V-114H241ZM242 45V468Q180
460 148 413T116 294V219Q116 149 148 102T242 45Z" />
<glyph unicode="&#xa3;" horiz-adv-x="590" d="M82 0V75Q124 98 143 140T162 231Q162 248 160 264T155 294H63V348H140Q128 385 116 421T104 503Q104 565 131 611T209 684T326 710Q399 710 450 680T536 595L487 561Q460 606 420 630T325 654Q255 654 212 614T169
497Q169 455 180 420T204 348H420V294H218Q221 281 222 267T224 238Q224 180 201 133T143 61V57H521V0H82Z" />
<glyph unicode="&#xa4;" horiz-adv-x="603" d="M56 67L19 104L127 212Q95 267 95 349Q95 431 127 486L19 594L56 631L161 526Q214 576 302 576Q389 576 442 526L547 631L584 594L476 486Q509 431 509 349Q509 267 476 212L584 104L547 67L442 172Q389 122 302
122Q214 122 161 172L56 67ZM302 173Q367 173 405 211T444 320V378Q444 450 406 487T302 525Q236 525 198 488T159 378V320Q159 249 197 211T302 173Z" />
<glyph unicode="&#xa5;" horiz-adv-x="597" d="M267 0V153H84V204H267V314H84V365H236L39 698H110L298 371H303L488 698H558L360 365H513V314H330V204H513V153H330V0H267Z" />
<glyph unicode="&#xa6;" horiz-adv-x="288" d="M118 404V760H170V404H118ZM118 -138V218H170V-138H118Z" />
<glyph unicode="&#xa7;" horiz-adv-x="579" d="M274 -155Q226 -155 185 -141T112 -99L147 -56Q170 -77 202 -89T275 -102Q336 -102 370 -76T404 -3Q404 26 390 46T352 80T294 104L229 124Q154 148 117 185T79 279Q79 330 108 367T189 425V430Q155 452 135 483T115
558Q115 606 139 640T205 692T304 710Q352 710 393 696T467 654L431 612Q408 632 377 645T303 658Q243 658 209 632T174 558Q174 529 188 509T227 475T284 451L349 431Q425 408 462 370T499 276Q499 225 470 188T389 131V126Q425 104 444 72T464 -2Q464 -50 440
-84T373 -137T274 -155ZM360 140Q396 162 418 191T440 262Q440 309 410 337T318 384L255 402Q245 405 236 408T218 415Q182 394 161 365T139 294Q139 246 169 218T260 172L323 153Q333 151 342 148T360 140Z" />
<glyph unicode="&#xa8;" horiz-adv-x="600" d="M392 626Q371 626 362 636T352 664V673Q352 690 361 700T392 711Q414 711 423 701T433 673V664Q433 647 424 637T392 626ZM208 626Q187 626 177 636T167 664V673Q167 690 177 700T208 711Q229 711 238 701T248 673V664Q248
647 239 637T208 626Z" />
<glyph unicode="&#xa9;" horiz-adv-x="753" d="M377 -11Q283 -11 209 33T91 158T47 349Q47 460 90 541T208 665T377 709Q471 709 545 666T663 541T706 349Q706 239 663 158T546 33T377 -11ZM377 35Q459 35 521 72T618 174T654 322V376Q654 459 619 524T521 626T377
663Q295 663 233 626T135 524T100 376V322Q100 239 135 174T232 72T377 35ZM381 153Q307 153 264 205T221 348Q221 440 264 491T382 543Q431 543 463 520T511 458L468 435Q456 463 436 479T382 495Q333 495 306 463T279 373V323Q279 265 306 233T381 200Q416 200
438 217T476 263L517 238Q501 202 467 178T381 153Z" />
<glyph unicode="&#xaa;" horiz-adv-x="384" d="M149 349Q97 349 69 375T40 444Q40 494 75 519T182 545H261V582Q261 624 240 644T178 664Q144 664 120 650T84 610L51 635Q66 663 97 683T180 704Q240 704 274 673T309 585V398H350V355H311Q289 355 277 365T264
396V407H260Q249 385 222 367T149 349ZM158 389Q199 389 230 407T261 460V508H180Q134 508 112 494T89 454V443Q89 416 107 403T158 389Z" />
<glyph unicode="&#xab;" horiz-adv-x="499" d="M429 89L235 259V316L429 486L448 445L295 287L448 130L429 89ZM229 89L35 259V316L229 486L248 445L96 287L248 130L229 89Z" />
<glyph unicode="&#xac;" horiz-adv-x="600" d="M476 87V279H65V331H529V87H476Z" />
<glyph unicode="&#xad;" horiz-adv-x="398" d="M74 272V336H324V272H74Z" />
<glyph unicode="&#xae;" horiz-adv-x="473" d="M236 298Q181 298 136 324T65 398T38 504Q38 564 64 610T136 683T236 710Q292 710 336 684T407 611T434 504Q434 445 408 398T337 325T236 298ZM236 330Q284 330 320 352T378 412T399 493V515Q399 559 378 596T321
655T236 678Q189 678 153 656T95 596T73 515V493Q73 449 94 412T152 353T236 330ZM165 396V606H252Q281 606 298 590T315 544Q315 519 304 504T273 484L324 396H288L241 480H197V396H165ZM197 506H250Q266 506 273 513T281 534V551Q281 566 274 572T250 579H197V506Z"
/>
<glyph unicode="&#xaf;" horiz-adv-x="600" d="M164 644V695H436V644H164Z" />
<glyph unicode="&#xb0;" horiz-adv-x="467" d="M234 369Q187 369 149 391T90 452T68 539Q68 588 89 626T149 687T234 710Q281 710 318 688T378 627T400 539Q400 491 378 452T319 391T234 369ZM234 418Q268 418 293 434T332 478T346 539Q346 573 332 600T293 644T234
661Q199 661 174 645T135 601T121 539Q121 506 135 478T174 434T234 418Z" />
<glyph unicode="&#xb1;" horiz-adv-x="600" d="M271 140V350H65V402H271V613H329V402H535V350H329V140H271ZM65 0V52H535V0H65Z" />
<glyph unicode="&#xb2;" horiz-adv-x="346" d="M41 329V374L174 482Q207 510 225 536T243 590V597Q243 627 224 645T168 664Q130 664 109 646T78 599L36 614Q48 650 80 677T171 704Q231 704 262 674T294 596Q294 555 269 521T200 453L92 368H307V329H41Z" />
<glyph unicode="&#xb3;" horiz-adv-x="346" d="M161 323Q109 323 79 342T30 386L66 412Q81 390 102 376T161 362Q203 362 225 380T247 432V438Q247 470 227 485T162 501H114V540H156Q200 540 220 557T240 601V606Q240 634 221 649T166 665Q134 665 113 653T77
620L44 646Q60 670 90 687T167 704Q222 704 256 679T291 609Q291 573 270 552T216 524V521Q251 515 274 493T298 431Q298 382 261 353T161 323Z" />
<glyph unicode="&#xb4;" horiz-adv-x="600" d="M299 586L259 605L353 770L408 742L299 586Z" />
<glyph unicode="&#xb5;" horiz-adv-x="571" d="M92 -200V513H152V194Q152 118 185 80T282 42Q317 42 348 54T399 92T419 155V513H479V0H419V81H415Q401 45 367 17T268 -12Q224 -12 195 4T149 53H146L152 -45V-200H92Z" />
<glyph unicode="&#xb6;" horiz-adv-x="632" d="M247 -149V310Q193 310 149 335T78 405T52 504Q52 560 78 604T148 673T247 698H544V647H477V-149H421V647H303V-149H247Z" />
<glyph unicode="&#xb7;" horiz-adv-x="317" d="M158 252Q133 252 121 265T109 299V311Q109 332 121 345T158 358Q184 358 196 345T208 311V299Q208 279 196 266T158 252Z" />
<glyph unicode="&#xb8;" horiz-adv-x="600" d="M311 -205Q275 -205 252 -193T218 -167L248 -136Q257 -147 273 -155T311 -163Q333 -163 347 -154T361 -125Q361 -110 348 -99T295 -83L264 -79L284 14H323L306 -65L309 -68Q318 -65 327 -64T345 -63Q374 -63 393
-79T412 -126Q412 -151 399 -169T363 -196T311 -205Z" />
<glyph unicode="&#xb9;" horiz-adv-x="364" d="M57 329V368H172V659H167L65 565L38 594L148 698H221V368H325V329H57Z" />
<glyph unicode="&#xba;" horiz-adv-x="387" d="M194 349Q124 349 85 396T45 527Q45 609 84 656T194 704Q264 704 303 657T343 527Q343 444 304 397T194 349ZM194 390Q242 390 266 421T290 501V553Q290 600 266 632T194 664Q146 664 122 632T97 553V501Q97 453
121 422T194 390Z" />
<glyph unicode="&#xbb;" horiz-adv-x="499" d="M270 89L251 130L404 287L251 445L270 486L464 316V259L270 89ZM71 89L52 130L204 287L52 445L71 486L265 316V259L71 89Z" />
<glyph unicode="&#xbc;" horiz-adv-x="848" d="M57 329V368H172V659H167L65 565L38 594L148 698H221V368H325V329H57ZM190 0L663 698H715L242 0H190ZM719 0V78H522V119L700 369H766V115H825V78H766V0H719ZM566 115H719V325H716L566 115Z" />
<glyph unicode="&#xbd;" horiz-adv-x="876" d="M57 329V368H172V659H167L65 565L38 594L148 698H221V368H325V329H57ZM190 0L663 698H715L242 0H190ZM571 0V45L704 153Q738 181 756 208T774 261V268Q774 298 755 316T699 335Q661 335 640 317T609 270L567 285Q579
321 611 348T701 375Q762 375 793 345T825 267Q825 226 800 192T731 124L623 39H838V0H571Z" />
<glyph unicode="&#xbe;" horiz-adv-x="821" d="M161 323Q109 323 79 342T30 386L66 412Q81 390 102 376T161 362Q203 362 225 380T247 432V438Q247 470 227 485T162 501H114V540H156Q200 540 220 557T240 601V606Q240 634 221 649T166 665Q134 665 113 653T77
620L44 646Q60 670 90 687T167 704Q222 704 256 679T291 609Q291 573 270 552T216 524V521Q251 515 274 493T298 431Q298 382 261 353T161 323ZM163 0L636 698H688L215 0H163ZM692 0V78H495V119L672 369H738V115H798V78H738V0H692ZM538 115H692V325H688L538 115Z"
/>
<glyph unicode="&#xbf;" horiz-adv-x="463" d="M232 -197Q172 -197 128 -174T60 -109T36 -12Q36 50 62 93T132 160T226 192V315H285V148Q198 145 150 106T101 0V-18Q101 -74 137 -108T234 -142Q297 -142 334 -108T386 -19L442 -39Q430 -83 403 -119T334 -176T232
-197ZM257 417Q232 417 220 430T207 464V475Q207 497 219 509T257 522Q283 522 295 510T307 475V464Q307 443 295 430T257 417Z" />
<glyph unicode="&#xc0;" horiz-adv-x="627" d="M26 0L273 698H354L601 0H535L460 215H165L90 0H26ZM181 271H444L314 638H310L181 271ZM315 759L206 916L261 943L355 778L315 759Z" />
<glyph unicode="&#xc1;" horiz-adv-x="627" d="M26 0L273 698H354L601 0H535L460 215H165L90 0H26ZM181 271H444L314 638H310L181 271ZM313 759L273 778L367 943L422 916L313 759Z" />
<glyph unicode="&#xc2;" horiz-adv-x="627" d="M26 0L273 698H354L601 0H535L460 215H165L90 0H26ZM181 271H444L314 638H310L181 271ZM194 767L160 791L277 931H351L468 791L434 767L314 887L194 767Z" />
<glyph unicode="&#xc3;" horiz-adv-x="627" d="M26 0L273 698H354L601 0H535L460 215H165L90 0H26ZM181 271H444L314 638H310L181 271ZM386 791Q363 791 345 799T307 818Q284 831 268 837T239 843Q222 843 208 836T178 814L152 844Q168 864 190 878T242 893Q265
893 283 885T321 865Q344 852 360 847T389 841Q407 841 420 848T450 870L476 839Q461 819 439 805T386 791Z" />
<glyph unicode="&#xc4;" horiz-adv-x="627" d="M26 0L273 698H354L601 0H535L460 215H165L90 0H26ZM181 271H444L314 638H310L181 271ZM406 798Q385 798 375 809T365 837V847Q365 864 375 874T406 885Q428 885 437 875T447 847V837Q447 820 438 809T406 798ZM222
798Q201 798 191 809T181 837V847Q181 864 191 874T222 885Q243 885 253 875T263 847V837Q263 820 253 809T222 798Z" />
<glyph unicode="&#xc5;" horiz-adv-x="627" d="M26 0L273 698H354L601 0H535L460 215H165L90 0H26ZM181 271H444L314 638H310L181 271ZM314 754Q284 754 260 767T221 805T207 861Q207 892 221 916T259 954T314 968Q345 968 369 954T407 916T421 861Q421 830 407
806T369 768T314 754ZM314 792Q343 792 359 808T376 852V870Q376 897 360 913T314 929Q285 929 269 913T252 870V852Q252 824 268 808T314 792Z" />
<glyph unicode="&#xc6;" horiz-adv-x="892" d="M3 0L369 698H825V642H477V381H808V325H477V56H825V0H414V215H180L69 0H3ZM206 270H414V642H402L206 270Z" />
<glyph unicode="&#xc7;" horiz-adv-x="617" d="M347 -205Q311 -205 288 -193T254 -167L284 -136Q294 -147 309 -155T347 -163Q369 -163 383 -154T397 -125Q397 -110 384 -99T331 -83L300 -79L315 -11Q195 -5 129 85T62 346Q62 464 94 545T188 668T336 710Q419
710 477 670T568 560L516 530Q493 587 448 620T336 653Q239 653 185 583T130 388V305Q130 180 184 113T336 45Q405 45 452 80T522 175L573 145Q543 77 488 35T354 -11L342 -65L345 -68Q354 -65 363 -64T381 -63Q410 -63 429 -79T449 -126Q449 -151 435 -169T399
-196T347 -205Z" />
<glyph unicode="&#xc8;" horiz-adv-x="576" d="M98 0V698H509V642H161V381H492V325H161V56H509V0H98ZM303 759L194 916L249 943L343 778L303 759Z" />
<glyph unicode="&#xc9;" horiz-adv-x="576" d="M98 0V698H509V642H161V381H492V325H161V56H509V0H98ZM301 759L261 778L355 943L410 916L301 759Z" />
<glyph unicode="&#xca;" horiz-adv-x="576" d="M98 0V698H509V642H161V381H492V325H161V56H509V0H98ZM182 767L148 791L265 931H339L456 791L422 767L302 887L182 767Z" />
<glyph unicode="&#xcb;" horiz-adv-x="576" d="M98 0V698H509V642H161V381H492V325H161V56H509V0H98ZM394 798Q373 798 363 809T353 837V847Q353 864 363 874T394 885Q416 885 425 875T435 847V837Q435 820 426 809T394 798ZM210 798Q189 798 179 809T169 837V847Q169
864 179 874T210 885Q231 885 241 875T251 847V837Q251 820 241 809T210 798Z" />
<glyph unicode="&#xcc;" horiz-adv-x="391" d="M63 0V53H164V645H63V698H328V645H227V53H328V0H63ZM452 759L343 916L398 943L492 778L452 759Z" />
<glyph unicode="&#xcd;" horiz-adv-x="391" d="M63 0V53H164V645H63V698H328V645H227V53H328V0H63ZM450 759L410 778L504 943L559 916L450 759Z" />
<glyph unicode="&#xce;" horiz-adv-x="391" d="M63 0V53H164V645H63V698H328V645H227V53H328V0H63ZM331 767L297 791L414 931H488L605 791L571 767L451 887L331 767Z" />
<glyph unicode="&#xcf;" horiz-adv-x="391" d="M63 0V53H164V645H63V698H328V645H227V53H328V0H63ZM543 798Q522 798 512 809T502 837V847Q502 864 512 874T543 885Q565 885 574 875T584 847V837Q584 820 575 809T543 798ZM359 798Q338 798 328 809T318 837V847Q318
864 328 874T359 885Q380 885 390 875T400 847V837Q400 820 390 809T359 798Z" />
<glyph unicode="&#xd0;" horiz-adv-x="670" d="M101 0V344H21V393H101V698H325Q414 698 477 660T574 544T608 349Q608 233 575 155T478 39T325 0H101ZM164 56H325Q393 56 441 85T514 170T540 301V397Q540 473 515 528T441 612T325 642H164V393H313V344H164V56Z" />
<glyph unicode="&#xd1;" horiz-adv-x="702" d="M98 0V698H173L422 289L539 87H542V698H604V0H529L253 453L163 611H160V0H98ZM423 791Q400 791 382 799T344 818Q321 831 305 837T276 843Q259 843 245 836T215 814L189 844Q205 864 227 878T279 893Q302 893 320
885T358 865Q381 852 397 847T426 841Q444 841 457 848T487 870L513 839Q498 819 476 805T423 791Z" />
<glyph unicode="&#xd2;" horiz-adv-x="699" d="M349 -12Q260 -12 196 29T97 150T62 349Q62 467 97 547T196 669T349 710Q438 710 502 669T602 548T637 349Q637 231 602 151T503 29T349 -12ZM349 45Q416 45 465 76T541 164T569 303V395Q569 476 542 534T465 622T349
653Q284 653 235 623T158 534T130 395V303Q130 222 157 165T234 76T349 45ZM350 759L241 916L296 943L390 778L350 759Z" />
<glyph unicode="&#xd3;" horiz-adv-x="699" d="M349 -12Q260 -12 196 29T97 150T62 349Q62 467 97 547T196 669T349 710Q438 710 502 669T602 548T637 349Q637 231 602 151T503 29T349 -12ZM349 45Q416 45 465 76T541 164T569 303V395Q569 476 542 534T465 622T349
653Q284 653 235 623T158 534T130 395V303Q130 222 157 165T234 76T349 45ZM348 759L308 778L402 943L457 916L348 759Z" />
<glyph unicode="&#xd4;" horiz-adv-x="699" d="M349 -12Q260 -12 196 29T97 150T62 349Q62 467 97 547T196 669T349 710Q438 710 502 669T602 548T637 349Q637 231 602 151T503 29T349 -12ZM349 45Q416 45 465 76T541 164T569 303V395Q569 476 542 534T465 622T349
653Q284 653 235 623T158 534T130 395V303Q130 222 157 165T234 76T349 45ZM229 767L195 791L312 931H386L503 791L469 767L349 887L229 767Z" />
<glyph unicode="&#xd5;" horiz-adv-x="699" d="M349 -12Q260 -12 196 29T97 150T62 349Q62 467 97 547T196 669T349 710Q438 710 502 669T602 548T637 349Q637 231 602 151T503 29T349 -12ZM349 45Q416 45 465 76T541 164T569 303V395Q569 476 542 534T465 622T349
653Q284 653 235 623T158 534T130 395V303Q130 222 157 165T234 76T349 45ZM421 791Q398 791 380 799T342 818Q319 831 303 837T274 843Q257 843 243 836T213 814L187 844Q203 864 225 878T277 893Q300 893 318 885T356 865Q379 852 395 847T424 841Q442 841 455
848T485 870L511 839Q496 819 474 805T421 791Z" />
<glyph unicode="&#xd6;" horiz-adv-x="699" d="M349 -12Q260 -12 196 29T97 150T62 349Q62 467 97 547T196 669T349 710Q438 710 502 669T602 548T637 349Q637 231 602 151T503 29T349 -12ZM349 45Q416 45 465 76T541 164T569 303V395Q569 476 542 534T465 622T349
653Q284 653 235 623T158 534T130 395V303Q130 222 157 165T234 76T349 45ZM441 798Q420 798 410 809T400 837V847Q400 864 410 874T441 885Q463 885 472 875T482 847V837Q482 820 473 809T441 798ZM257 798Q236 798 226 809T216 837V847Q216 864 226 874T257 885Q278
885 288 875T298 847V837Q298 820 288 809T257 798Z" />
<glyph unicode="&#xd7;" horiz-adv-x="600" d="M134 99L96 136L263 305L96 474L134 511L300 342L466 511L504 474L337 305L504 136L466 99L300 268L134 99Z" />
<glyph unicode="&#xd8;" horiz-adv-x="699" d="M110 -40L66 -12L134 86Q99 132 81 197T62 349Q62 467 97 547T196 669T349 710Q457 710 527 650L589 739L633 711L564 612Q600 567 618 501T637 349Q637 231 602 151T503 29T349 -12Q242 -12 172 48L110 -40ZM349
45Q416 45 465 76T541 164T569 303V395Q569 445 558 486T528 559L206 98Q262 45 349 45ZM171 139L493 600Q437 653 349 653Q284 653 235 623T158 534T130 395V303Q130 253 140 212T171 139Z" />
<glyph unicode="&#xd9;" horiz-adv-x="669" d="M333 -12Q243 -12 191 18T115 114T92 281V698H155V267Q155 191 172 142T228 69T335 45Q402 45 441 68T497 141T514 267V698H577V281Q577 179 554 114T477 19T333 -12ZM334 759L225 916L280 943L374 778L334 759Z" />
<glyph unicode="&#xda;" horiz-adv-x="669" d="M333 -12Q243 -12 191 18T115 114T92 281V698H155V267Q155 191 172 142T228 69T335 45Q402 45 441 68T497 141T514 267V698H577V281Q577 179 554 114T477 19T333 -12ZM332 759L292 778L386 943L441 916L332 759Z" />
<glyph unicode="&#xdb;" horiz-adv-x="669" d="M333 -12Q243 -12 191 18T115 114T92 281V698H155V267Q155 191 172 142T228 69T335 45Q402 45 441 68T497 141T514 267V698H577V281Q577 179 554 114T477 19T333 -12ZM213 767L179 791L296 931H370L487 791L453 767L333
887L213 767Z" />
<glyph unicode="&#xdc;" horiz-adv-x="669" d="M333 -12Q243 -12 191 18T115 114T92 281V698H155V267Q155 191 172 142T228 69T335 45Q402 45 441 68T497 141T514 267V698H577V281Q577 179 554 114T477 19T333 -12ZM425 798Q404 798 394 809T384 837V847Q384 864
394 874T425 885Q447 885 456 875T466 847V837Q466 820 457 809T425 798ZM241 798Q220 798 210 809T200 837V847Q200 864 210 874T241 885Q262 885 272 875T282 847V837Q282 820 272 809T241 798Z" />
<glyph unicode="&#xdd;" horiz-adv-x="577" d="M256 0V282L16 698H88L287 348H290L490 698H562L319 284V0H256ZM544 759L504 778L598 943L653 916L544 759Z" />
<glyph unicode="&#xde;" horiz-adv-x="602" d="M98 0V698H161V550H373Q434 550 476 526T539 458T561 354Q561 294 540 250T476 182T373 158H161V0H98ZM161 215H373Q412 215 438 230T479 271T493 330V378Q493 412 479 437T439 478T373 493H161V215Z" />
<glyph unicode="&#xdf;" horiz-adv-x="642" d="M433 -12Q372 -12 328 10T251 75L293 111Q322 74 356 57T437 40Q491 40 520 64T549 135Q549 173 530 195T466 228L431 236Q391 246 360 261T310 303T292 376Q292 444 343 480T479 517V525Q479 612 442 656T329 700Q254
700 217 656T180 525V0H120V460H33V513H120V521Q120 591 144 643T215 723T329 752Q396 752 442 724T513 643T538 521V469H501Q455 469 422 460T370 432T351 379Q351 338 373 320T439 290L474 282Q542 266 574 234T607 141Q607 69 561 29T433 -12Z" />
<glyph unicode="&#xe0;" horiz-adv-x="529" d="M219 -12Q139 -12 95 28T50 139Q50 186 71 219T139 270T260 288H375V347Q375 410 343 441T246 472Q196 472 162 451T107 389L69 422Q90 466 134 495T248 525Q338 525 386 480T435 353V53H503V0H447Q414 0 398 17T379
62L378 82H374Q357 38 318 13T219 -12ZM228 40Q270 40 303 53T355 91T375 149V242H257Q182 242 148 219T113 153V129Q113 86 145 63T228 40ZM508 586L399 742L454 770L548 605L508 586Z" />
<glyph unicode="&#xe1;" horiz-adv-x="529" d="M219 -12Q139 -12 95 28T50 139Q50 186 71 219T139 270T260 288H375V347Q375 410 343 441T246 472Q196 472 162 451T107 389L69 422Q90 466 134 495T248 525Q338 525 386 480T435 353V53H503V0H447Q414 0 398 17T379
62L378 82H374Q357 38 318 13T219 -12ZM228 40Q270 40 303 53T355 91T375 149V242H257Q182 242 148 219T113 153V129Q113 86 145 63T228 40ZM506 586L466 605L560 770L615 742L506 586Z" />
<glyph unicode="&#xe2;" horiz-adv-x="529" d="M219 -12Q139 -12 95 28T50 139Q50 186 71 219T139 270T260 288H375V347Q375 410 343 441T246 472Q196 472 162 451T107 389L69 422Q90 466 134 495T248 525Q338 525 386 480T435 353V53H503V0H447Q414 0 398 17T379
62L378 82H374Q357 38 318 13T219 -12ZM228 40Q270 40 303 53T355 91T375 149V242H257Q182 242 148 219T113 153V129Q113 86 145 63T228 40ZM387 594L353 618L470 758H544L661 618L627 594L507 714L387 594Z" />
<glyph unicode="&#xe3;" horiz-adv-x="529" d="M219 -12Q139 -12 95 28T50 139Q50 186 71 219T139 270T260 288H375V347Q375 410 343 441T246 472Q196 472 162 451T107 389L69 422Q90 466 134 495T248 525Q338 525 386 480T435 353V53H503V0H447Q414 0 398 17T379
62L378 82H374Q357 38 318 13T219 -12ZM228 40Q270 40 303 53T355 91T375 149V242H257Q182 242 148 219T113 153V129Q113 86 145 63T228 40ZM579 617Q556 617 538 625T500 645Q477 658 461 663T432 669Q415 669 401 662T371 640L345 671Q361 691 383 705T435 719Q458
719 476 711T514 692Q537 679 553 673T582 667Q600 667 613 674T643 696L669 666Q654 646 632 632T579 617Z" />
<glyph unicode="&#xe4;" horiz-adv-x="529" d="M219 -12Q139 -12 95 28T50 139Q50 186 71 219T139 270T260 288H375V347Q375 410 343 441T246 472Q196 472 162 451T107 389L69 422Q90 466 134 495T248 525Q338 525 386 480T435 353V53H503V0H447Q414 0 398 17T379
62L378 82H374Q357 38 318 13T219 -12ZM228 40Q270 40 303 53T355 91T375 149V242H257Q182 242 148 219T113 153V129Q113 86 145 63T228 40ZM599 626Q578 626 569 636T559 664V673Q559 690 568 700T599 711Q621 711 630 701T640 673V664Q640 647 631 637T599 626ZM415
626Q394 626 384 636T374 664V673Q374 690 384 700T415 711Q436 711 445 701T455 673V664Q455 647 446 637T415 626Z" />
<glyph unicode="&#xe5;" horiz-adv-x="529" d="M219 -12Q139 -12 95 28T50 139Q50 186 71 219T139 270T260 288H375V347Q375 410 343 441T246 472Q196 472 162 451T107 389L69 422Q90 466 134 495T248 525Q338 525 386 480T435 353V53H503V0H447Q414 0 398 17T379
62L378 82H374Q357 38 318 13T219 -12ZM228 40Q270 40 303 53T355 91T375 149V242H257Q182 242 148 219T113 153V129Q113 86 145 63T228 40ZM507 580Q477 580 453 594T414 632T400 687Q400 718 414 742T452 780T507 794Q538 794 562 781T600 743T614 687Q614 656
600 632T562 594T507 580ZM507 619Q536 619 552 635T569 678V696Q569 724 553 740T507 756Q478 756 462 740T445 696V678Q445 651 461 635T507 619Z" />
<glyph unicode="&#xe6;" horiz-adv-x="863" d="M216 -12Q138 -12 93 28T48 138Q48 185 70 219T138 271T258 290H373V347Q373 410 341 441T246 472Q194 472 161 452T106 390L68 422Q88 466 132 495T247 525Q303 525 337 506T387 459T409 403H414Q423 433 448 461T512
507T601 525Q665 525 712 493T786 404T812 273V244H434V219Q434 140 477 91T599 41Q654 41 692 66T752 141L796 112Q772 56 722 22T602 -12Q551 -12 511 6T446 52T411 110H406Q400 80 376 52T311 6T216 -12ZM227 40Q268 40 301 53T353 91T373 149V244H256Q181 243
147 219T112 153V129Q112 86 143 63T227 40ZM434 290H747V299Q747 352 728 391T675 452T595 474Q546 474 510 452T454 389T434 296V290Z" />
<glyph unicode="&#xe7;" horiz-adv-x="498" d="M285 -205Q249 -205 226 -193T192 -167L222 -136Q232 -147 247 -155T285 -163Q307 -163 321 -154T335 -125Q335 -110 322 -99T269 -83L238 -79L253 -11Q157 -4 104 66T51 256Q51 383 110 454T275 525Q346 525 391
494T458 411L408 385Q390 426 357 448T275 471Q197 471 157 422T116 294V219Q116 140 156 91T275 42Q327 42 363 65T421 131L465 101Q442 54 399 24T292 -11L280 -65L283 -68Q292 -65 301 -64T319 -63Q348 -63 367 -79T387 -126Q387 -151 373 -169T337 -196T285
-205Z" />
<glyph unicode="&#xe8;" horiz-adv-x="544" d="M277 -12Q208 -12 158 20T79 113T51 256Q51 340 79 400T157 492T275 525Q342 525 390 493T465 404T492 273V244H115V219Q115 140 158 91T280 41Q334 41 373 67T433 142L477 112Q453 57 402 23T277 -12ZM115 290H427V299Q427
352 408 391T355 452T275 474Q227 474 191 452T135 389T115 296V290ZM532 586L423 742L478 770L572 605L532 586Z" />
<glyph unicode="&#xe9;" horiz-adv-x="544" d="M277 -12Q208 -12 158 20T79 113T51 256Q51 340 79 400T157 492T275 525Q342 525 390 493T465 404T492 273V244H115V219Q115 140 158 91T280 41Q334 41 373 67T433 142L477 112Q453 57 402 23T277 -12ZM115 290H427V299Q427
352 408 391T355 452T275 474Q227 474 191 452T135 389T115 296V290ZM530 586L490 605L584 770L639 742L530 586Z" />
<glyph unicode="&#xea;" horiz-adv-x="544" d="M277 -12Q208 -12 158 20T79 113T51 256Q51 340 79 400T157 492T275 525Q342 525 390 493T465 404T492 273V244H115V219Q115 140 158 91T280 41Q334 41 373 67T433 142L477 112Q453 57 402 23T277 -12ZM115 290H427V299Q427
352 408 391T355 452T275 474Q227 474 191 452T135 389T115 296V290ZM411 594L377 618L494 758H568L685 618L651 594L531 714L411 594Z" />
<glyph unicode="&#xeb;" horiz-adv-x="544" d="M277 -12Q208 -12 158 20T79 113T51 256Q51 340 79 400T157 492T275 525Q342 525 390 493T465 404T492 273V244H115V219Q115 140 158 91T280 41Q334 41 373 67T433 142L477 112Q453 57 402 23T277 -12ZM115 290H427V299Q427
352 408 391T355 452T275 474Q227 474 191 452T135 389T115 296V290ZM623 626Q602 626 593 636T583 664V673Q583 690 592 700T623 711Q645 711 654 701T664 673V664Q664 647 655 637T623 626ZM439 626Q418 626 408 636T398 664V673Q398 690 408 700T439 711Q460
711 469 701T479 673V664Q479 647 470 637T439 626Z" />
<glyph unicode="&#xec;" horiz-adv-x="244" d="M92 0V513H152V0H92ZM123 586L14 742L69 770L163 605L123 586Z" />
<glyph unicode="&#xed;" horiz-adv-x="244" d="M92 0V513H152V0H92ZM121 586L81 605L175 770L230 742L121 586Z" />
<glyph unicode="&#xee;" horiz-adv-x="244" d="M92 0V513H152V0H92ZM2 594L-32 618L85 758H159L276 618L242 594L122 714L2 594Z" />
<glyph unicode="&#xef;" horiz-adv-x="244" d="M92 0V513H152V0H92ZM214 626Q193 626 184 636T174 664V673Q174 690 183 700T214 711Q236 711 245 701T255 673V664Q255 647 246 637T214 626ZM30 626Q9 626 -1 636T-11 664V673Q-11 690 -1 700T30 711Q51 711 60
701T70 673V664Q70 647 61 637T30 626Z" />
<glyph unicode="&#xf0;" horiz-adv-x="551" d="M274 -12Q207 -12 157 20T79 110T51 247Q51 324 78 381T156 471T274 503Q324 503 359 479T414 410L417 412Q402 474 366 528T282 627L193 563L169 595L251 654Q224 677 192 699T126 740H220Q238 730 256 717T294
685L388 753L413 721L325 657Q369 615 408 557T472 425T497 263Q497 174 469 113T390 20T274 -12ZM274 40Q321 40 356 61T412 122T432 215V276Q432 330 412 369T357 429T274 450Q227 450 192 429T136 369T116 276V215Q116 162 136 123T191 62T274 40Z" />
<glyph unicode="&#xf1;" horiz-adv-x="564" d="M92 0V513H152V431H156Q173 472 208 498T306 525Q387 525 433 474T479 329V0H419V318Q419 395 386 432T289 470Q254 470 223 458T172 422T152 359V0H92ZM615 617Q592 617 574 625T536 645Q513 658 497 663T468 669Q451
669 437 662T407 640L381 671Q397 691 419 705T471 719Q494 719 512 711T550 692Q573 679 589 673T618 667Q636 667 649 674T679 696L705 666Q690 646 668 632T615 617Z" />
<glyph unicode="&#xf2;" horiz-adv-x="553" d="M277 -12Q209 -12 158 20T79 113T51 256Q51 340 79 400T158 492T277 525Q345 525 395 493T474 400T502 256Q502 173 474 113T396 21T277 -12ZM277 42Q350 42 393 88T437 224V289Q437 378 394 424T277 471Q204 471
160 425T116 289V224Q116 135 160 89T277 42ZM534 841L425 997L480 1025L574 860L534 841Z" />
<glyph unicode="&#xf3;" horiz-adv-x="553" d="M277 -12Q209 -12 158 20T79 113T51 256Q51 340 79 400T158 492T277 525Q345 525 395 493T474 400T502 256Q502 173 474 113T396 21T277 -12ZM277 42Q350 42 393 88T437 224V289Q437 378 394 424T277 471Q204 471
160 425T116 289V224Q116 135 160 89T277 42ZM532 841L492 860L586 1025L641 997L532 841Z" />
<glyph unicode="&#xf4;" horiz-adv-x="553" d="M277 -12Q209 -12 158 20T79 113T51 256Q51 340 79 400T158 492T277 525Q345 525 395 493T474 400T502 256Q502 173 474 113T396 21T277 -12ZM277 42Q350 42 393 88T437 224V289Q437 378 394 424T277 471Q204 471
160 425T116 289V224Q116 135 160 89T277 42ZM413 849L379 873L496 1013H570L687 873L653 849L533 969L413 849Z" />
<glyph unicode="&#xf5;" horiz-adv-x="553" d="M277 -12Q209 -12 158 20T79 113T51 256Q51 340 79 400T158 492T277 525Q345 525 395 493T474 400T502 256Q502 173 474 113T396 21T277 -12ZM277 42Q350 42 393 88T437 224V289Q437 378 394 424T277 471Q204 471
160 425T116 289V224Q116 135 160 89T277 42ZM605 872Q582 872 564 880T526 900Q503 913 487 918T458 924Q441 924 427 917T397 895L371 926Q387 946 409 960T461 974Q484 974 502 966T540 947Q563 934 579 928T608 922Q626 922 639 929T669 951L695 921Q680 901
658 887T605 872Z" />
<glyph unicode="&#xf6;" horiz-adv-x="553" d="M277 -12Q209 -12 158 20T79 113T51 256Q51 340 79 400T158 492T277 525Q345 525 395 493T474 400T502 256Q502 173 474 113T396 21T277 -12ZM277 42Q350 42 393 88T437 224V289Q437 378 394 424T277 471Q204 471
160 425T116 289V224Q116 135 160 89T277 42ZM625 881Q604 881 595 891T585 919V928Q585 945 594 955T625 966Q647 966 656 956T666 928V919Q666 902 657 892T625 881ZM441 881Q420 881 410 891T400 919V928Q400 945 410 955T441 966Q462 966 471 956T481 928V919Q481
902 472 892T441 881Z" />
<glyph unicode="&#xf7;" horiz-adv-x="600" d="M65 279V331H535V279H65ZM300 62Q272 62 260 73T247 103V120Q247 138 259 149T300 161Q329 161 341 150T353 120V103Q353 85 341 74T300 62ZM300 449Q272 449 260 461T247 490V508Q247 525 259 537T300 549Q329 549
341 537T353 508V490Q353 473 341 461T300 449Z" />
<glyph unicode="&#xf8;" horiz-adv-x="561" d="M71 -35L37 -9L104 75Q80 109 68 154T55 256Q55 340 83 400T161 492T280 525Q323 525 360 511T425 472L489 551L524 525L455 439Q479 405 492 359T506 256Q506 173 478 113T399 21T280 -12Q236 -12 200 2T134 42L71
-35ZM280 42Q354 42 397 88T441 224V289Q441 320 435 346T418 393L168 85Q189 64 217 53T280 42ZM142 121L391 430Q371 450 343 460T280 471Q208 471 164 425T120 289V224Q120 193 125 168T142 121Z" />
<glyph unicode="&#xf9;" horiz-adv-x="563" d="M258 -12Q177 -12 131 39T84 184V513H144V194Q144 118 177 80T274 42Q310 42 341 54T391 91T411 154V513H471V0H411V81H407Q393 45 359 17T258 -12ZM535 586L426 742L481 770L575 605L535 586Z" />
<glyph unicode="&#xfa;" horiz-adv-x="563" d="M258 -12Q177 -12 131 39T84 184V513H144V194Q144 118 177 80T274 42Q310 42 341 54T391 91T411 154V513H471V0H411V81H407Q393 45 359 17T258 -12ZM533 586L493 605L587 770L642 742L533 586Z" />
<glyph unicode="&#xfb;" horiz-adv-x="563" d="M258 -12Q177 -12 131 39T84 184V513H144V194Q144 118 177 80T274 42Q310 42 341 54T391 91T411 154V513H471V0H411V81H407Q393 45 359 17T258 -12ZM414 594L380 618L497 758H571L688 618L654 594L534 714L414 594Z" />
<glyph unicode="&#xfc;" horiz-adv-x="563" d="M258 -12Q177 -12 131 39T84 184V513H144V194Q144 118 177 80T274 42Q310 42 341 54T391 91T411 154V513H471V0H411V81H407Q393 45 359 17T258 -12ZM626 626Q605 626 596 636T586 664V673Q586 690 595 700T626 711Q648
711 657 701T667 673V664Q667 647 658 637T626 626ZM442 626Q421 626 411 636T401 664V673Q401 690 411 700T442 711Q463 711 472 701T482 673V664Q482 647 473 637T442 626Z" />
<glyph unicode="&#xfd;" horiz-adv-x="483" d="M79 -200V-147H164L212 -16L20 513H80L198 183L238 62H243L285 181L404 513H464L225 -140Q217 -163 207 -176T179 -194T134 -200H79ZM497 586L457 605L551 770L606 742L497 586Z" />
<glyph unicode="&#xfe;" horiz-adv-x="575" d="M92 -200V740H152V431H156Q174 474 213 499T311 525Q377 525 424 493T496 401T522 256Q522 172 497 112T424 20T311 -12Q253 -12 215 13T156 82H152V-200H92ZM296 42Q372 42 414 90T457 219V294Q457 374 415 422T296
470Q258 470 225 456T172 417T152 359V158Q152 122 172 96T225 56T296 42Z" />
<glyph unicode="&#xff;" horiz-adv-x="483" d="M79 -200V-147H164L212 -16L20 513H80L198 183L238 62H243L285 181L404 513H464L225 -140Q217 -163 207 -176T179 -194T134 -200H79ZM590 626Q569 626 560 636T550 664V673Q550 690 559 700T590 711Q612 711 621
701T631 673V664Q631 647 622 637T590 626ZM406 626Q385 626 375 636T365 664V673Q365 690 375 700T406 711Q427 711 436 701T446 673V664Q446 647 437 637T406 626Z" />
<glyph unicode="&#x2013;" horiz-adv-x="588" d="M36 276V333H552V276H36Z" />
<glyph unicode="&#x2014;" horiz-adv-x="780" d="M36 276V333H744V276H36Z" />
<glyph unicode="&#x2018;" horiz-adv-x="262" d="M126 507Q101 507 89 520T77 555V568Q77 609 100 657T163 740H214Q182 707 164 675T140 610Q159 607 167 595T176 567V555Q176 534 165 521T126 507Z" />
<glyph unicode="&#x2019;" horiz-adv-x="262" d="M49 517Q82 551 99 582T124 647Q104 650 96 661T87 690V702Q87 723 99 736T137 750Q163 750 174 737T186 702V689Q186 648 163 600T100 517H49Z" />
<glyph unicode="&#x201a;" horiz-adv-x="263" d="M41 -122Q73 -88 91 -57T115 8Q96 11 88 23T79 51V63Q79 84 91 97T129 111Q155 111 166 98T178 63V50Q178 10 155 -38T92 -122H41Z" />
<glyph unicode="&#x201c;" horiz-adv-x="450" d="M314 507Q289 507 277 520T265 555V568Q265 609 288 657T351 740H402Q370 707 352 675T328 610Q347 607 355 595T364 567V555Q364 534 353 521T314 507ZM126 507Q101 507 89 520T77 555V568Q77 609 100 657T163
740H214Q182 707 164 675T140 610Q159 607 167 595T176 567V555Q176 534 165 521T126 507Z" />
<glyph unicode="&#x201d;" horiz-adv-x="449" d="M236 517Q269 551 287 582T311 647Q292 650 283 661T274 690V702Q274 723 286 736T324 750Q350 750 362 737T374 702V689Q374 648 351 600T287 517H236ZM49 517Q82 551 99 582T124 647Q104 650 96 661T87 690V702Q87
723 99 736T137 750Q163 750 174 737T186 702V689Q186 648 163 600T100 517H49Z" />
<glyph unicode="&#x201e;" horiz-adv-x="450" d="M228 -122Q261 -88 278 -57T303 8Q283 11 275 23T266 51V63Q266 84 278 97T316 111Q342 111 353 98T365 63V50Q365 10 342 -38T279 -122H228ZM41 -122Q73 -88 91 -57T115 8Q96 11 88 23T79 51V63Q79 84 91 97T129
111Q155 111 166 98T178 63V50Q178 10 155 -38T92 -122H41Z" />
<glyph unicode="&#x2022;" horiz-adv-x="376" d="M188 197Q128 197 103 224T78 291V317Q78 357 103 384T188 411Q248 411 273 384T298 317V291Q298 251 273 224T188 197Z" />
<glyph unicode="&#x2039;" horiz-adv-x="300" d="M229 89L35 259V316L229 486L248 445L96 287L248 130L229 89Z" />
<glyph unicode="&#x203a;" horiz-adv-x="300" d="M71 89L52 130L204 287L52 445L71 486L265 316V259L71 89Z" />
</font>
</defs>
</svg>
