<?xml version="1.0" standalone="no"?>
<!DOCTYPE svg PUBLIC "-//W3C//DTD SVG 1.1//EN" "http://www.w3.org/Graphics/SVG/1.1/DTD/svg11.dtd">
<svg xmlns="http://www.w3.org/2000/svg">
<defs >
<font id="Anuphan" horiz-adv-x="587" ><font-face
    font-family="Anuphan SemiBold"
    units-per-em="1000"
    panose-1="0 0 0 0 0 0 0 0 0 0"
    ascent="1025"
    descent="-275"
    alphabetic="0" />
<glyph unicode=" " horiz-adv-x="236" />
<glyph unicode="!" horiz-adv-x="308" d="M127 208L88 501V698H221V501L183 208H127ZM154 -12Q112 -12 93 8T74 58V78Q74 108 93 128T154 148Q196 148 215 128T234 78V58Q234 28 215 8T154 -12Z" />
<glyph unicode="&quot;" horiz-adv-x="468" d="M283 429V740H395V429H283ZM74 429V740H186V429H74Z" />
<glyph unicode="#" horiz-adv-x="659" d="M105 0L137 184H27V264H151L180 434H70V514H194L226 698H309L278 514H436L467 698H551L520 514H630V434H505L477 264H587V184H463L431 0H347L379 184H221L189 0H105ZM235 264H393L422 434H264L235 264Z" />
<glyph unicode="$" horiz-adv-x="600" d="M257 -82V7Q181 13 129 43T39 116L118 189Q148 154 184 133T266 105V311Q157 334 108 381T59 503Q59 583 111 631T257 690V780H353V690Q416 684 462 660T543 593L462 523Q442 548 414 566T345 592V403Q452 379 502 334T552
211Q552 134 502 79T353 9V-82H257ZM345 106Q388 116 411 141T434 202Q434 234 416 257T345 294V106ZM266 421V593Q222 586 200 564T177 508Q177 484 186 468T216 440T266 421Z" />
<glyph unicode="%" horiz-adv-x="958" d="M180 0L664 698H778L294 0H180ZM228 314Q172 314 134 336T75 403T55 512Q55 577 75 621T133 687T228 710Q283 710 321 688T380 621T400 512Q400 447 380 403T322 337T228 314ZM228 389Q249 389 263 399T284 430T291 485V539Q291
572 284 593T263 625T228 635Q207 635 193 625T172 594T164 539V485Q164 452 171 431T193 399T228 389ZM731 -12Q675 -12 637 10T578 77T558 186Q558 251 578 295T636 361T731 384Q786 384 824 362T883 295T903 186Q903 121 883 77T825 11T731 -12ZM731 63Q752
63 766 73T787 104T794 159V213Q794 246 787 267T766 299T731 309Q710 309 696 299T675 268T667 213V159Q667 126 674 105T696 73T731 63Z" />
<glyph unicode="&amp;" horiz-adv-x="712" d="M287 -12Q212 -12 161 13T84 83T57 182Q57 232 76 267T127 329T198 377Q167 412 144 453T120 543Q120 589 144 627T214 687T320 710Q374 710 417 692T485 638T510 553Q510 509 490 475T437 415T364 364L488 230Q502
264 509 302T518 379H675V274H609Q602 239 590 208T563 149L701 0H547L488 65Q468 48 441 30T376 0T287 -12ZM304 93Q340 93 369 104T421 136L261 309Q237 296 220 281T195 247T186 203V192Q186 148 216 121T304 93ZM301 432Q327 447 347 463T378 498T390 539V546Q390
567 380 581T353 604T316 612Q283 612 262 593T240 543V536Q240 514 255 491T301 432Z" />
<glyph unicode="&apos;" horiz-adv-x="259" d="M74 429V740H186V429H74Z" />
<glyph unicode="(" horiz-adv-x="337" d="M229 -138Q180 -96 140 -28T76 128T52 312Q52 409 75 494T139 648T229 760H347Q294 710 254 645T193 504T171 349V273Q171 191 193 116T254 -24T347 -138H229Z" />
<glyph unicode=")" horiz-adv-x="337" d="M-10 -138Q43 -89 82 -25T144 115T166 273V349Q166 429 145 504T84 644T-10 760H108Q158 717 198 649T261 495T285 312Q285 215 261 128T198 -27T108 -138H-10Z" />
<glyph unicode="*" horiz-adv-x="551" d="M176 288L88 348L203 489L33 539L67 637L229 571L221 747H330L322 571L484 637L517 539L348 489L462 348L374 289L275 438L176 288Z" />
<glyph unicode="+" horiz-adv-x="600" d="M245 63V255H67V356H245V549H355V356H533V255H355V63H245Z" />
<glyph unicode="," horiz-adv-x="297" d="M38 -142Q72 -110 94 -79T129 -9Q99 -3 85 16T71 61V79Q71 111 90 131T150 152Q191 152 210 132T229 79V61Q229 7 202 -49T127 -142H38Z" />
<glyph unicode="-" horiz-adv-x="402" d="M58 242V367H343V242H58Z" />
<glyph unicode="." horiz-adv-x="297" d="M149 -11Q108 -11 89 9T70 61V79Q70 111 89 131T149 152Q189 152 208 132T228 79V61Q228 30 209 10T149 -11Z" />
<glyph unicode="/" horiz-adv-x="434" d="M5 -151L291 740H396L110 -151H5Z" />
<glyph unicode="0" horiz-adv-x="600" d="M300 -12Q167 -12 104 83T41 349Q41 520 104 615T300 710Q433 710 496 615T559 349Q559 178 496 83T300 -12ZM300 97Q345 97 371 120T409 185T421 286V412Q421 470 410 512T372 578T300 601Q255 601 229 578T191 513T179
412V286Q179 228 190 186T228 120T300 97Z" />
<glyph unicode="1" horiz-adv-x="600" d="M92 0V105H282V605H274L121 426L40 494L213 698H410V105H569V0H92Z" />
<glyph unicode="2" horiz-adv-x="600" d="M63 0V120L282 313Q338 361 364 401T391 488V502Q391 548 361 573T286 598Q232 598 204 568T163 494L51 537Q66 583 96 622T177 685T297 710Q370 710 421 683T500 610T527 502Q527 444 504 398T440 313T352 233L203 109H545V0H63Z"
/>
<glyph unicode="3" horiz-adv-x="600" d="M272 -12Q205 -12 158 6T79 54T25 117L120 190Q144 148 178 121T272 94Q330 94 362 123T394 201V207Q394 257 360 282T262 308H193V415H262Q323 415 351 440T380 504V511Q380 555 352 579T276 604Q230 604 194 582T133
519L50 594Q74 627 105 653T178 694T280 710Q350 710 403 688T485 625T515 528Q515 461 476 421T382 369V364Q423 357 455 336T508 279T528 193Q528 132 496 86T406 14T272 -12Z" />
<glyph unicode="4" horiz-adv-x="600" d="M350 0V135H33V245L311 698H472V236H564V135H472V0H350ZM139 236H350V573H341L139 236Z" />
<glyph unicode="5" horiz-adv-x="600" d="M295 -12Q231 -12 186 6T109 54T56 117L150 190Q174 150 206 122T296 94Q355 94 386 127T417 218V227Q417 282 386 313T298 344Q256 344 229 328T185 292L79 307L105 698H514V586H201L184 350H192Q207 380 225 402T270
437T339 450Q399 450 447 424T523 348T552 230Q552 160 522 105T435 19T295 -12Z" />
<glyph unicode="6" horiz-adv-x="600" d="M303 -12Q224 -12 168 21T81 116T50 262Q50 337 72 403T131 525T212 625T300 698H474Q393 639 334 586T237 474T184 344L192 341Q205 369 225 392T276 430T350 445Q409 445 455 419T528 343T555 228Q555 158 524 104T436
19T303 -12ZM303 90Q340 90 366 104T407 145T422 210V225Q422 263 408 289T367 330T303 344Q265 344 239 330T198 290T183 225V210Q183 172 197 145T238 104T303 90Z" />
<glyph unicode="7" horiz-adv-x="600" d="M169 0L414 593H169V465H60V698H542V587L304 0H169Z" />
<glyph unicode="8" horiz-adv-x="600" d="M300 -12Q219 -12 162 14T76 87T46 191Q46 259 84 301T184 361V369Q132 388 100 428T67 529Q67 609 128 659T300 710Q412 710 472 660T533 529Q533 468 501 428T416 369V361Q478 344 516 302T554 191Q554 133 525 87T439
15T300 -12ZM300 89Q358 89 389 116T420 190V210Q420 257 389 284T300 311Q243 311 212 284T180 210V190Q180 143 211 116T300 89ZM300 408Q353 408 381 432T410 501V516Q410 560 382 584T300 609Q247 609 219 585T190 516V501Q190 457 218 433T300 408Z" />
<glyph unicode="9" horiz-adv-x="600" d="M126 0Q208 59 267 112T363 224T416 354L408 357Q395 330 375 306T324 268T250 253Q192 253 146 280T72 355T45 470Q45 541 76 595T164 679T297 710Q377 710 433 677T519 582T550 436Q550 361 528 295T469 173T388 73T300
0H126ZM297 354Q335 354 361 368T402 408T417 473V488Q417 526 403 553T362 594T297 608Q260 608 234 594T193 553T178 488V473Q178 435 192 409T233 368T297 354Z" />
<glyph unicode=":" horiz-adv-x="317" d="M159 370Q118 370 99 391T80 443V461Q80 493 99 513T159 533Q199 533 218 513T238 461V443Q238 412 219 391T159 370ZM159 -11Q118 -11 99 9T80 61V79Q80 111 99 131T159 152Q199 152 218 132T238 79V61Q238 30 219 10T159 -11Z" />
<glyph unicode=";" horiz-adv-x="317" d="M48 -142Q82 -110 104 -79T139 -9Q109 -3 95 16T81 61V79Q81 111 100 131T160 152Q201 152 220 132T239 79V61Q239 7 212 -49T137 -142H48ZM159 370Q118 370 99 391T80 443V461Q80 493 99 513T159 533Q199 533 218 513T238
461V443Q238 412 219 391T159 370Z" />
<glyph unicode="&lt;" horiz-adv-x="600" d="M501 -5L99 251V336L501 591V464L228 297V290L501 123V-5Z" />
<glyph unicode="=" horiz-adv-x="600" d="M67 365V467H533V365H67ZM67 144V245H533V144H67Z" />
<glyph unicode="&gt;" horiz-adv-x="600" d="M99 -5V123L372 290V297L99 464V591L501 336V252L99 -5Z" />
<glyph unicode="?" horiz-adv-x="492" d="M165 225V381Q245 385 287 413T329 498V512Q329 555 303 578T235 602Q190 602 162 575T123 506L17 549Q29 590 56 627T128 687T240 710Q307 710 357 685T434 615T462 510Q462 451 437 409T371 342T284 309V225H165ZM226
-12Q184 -12 165 8T146 58V78Q146 108 165 128T226 148Q268 148 287 128T306 78V58Q306 28 287 8T226 -12Z" />
<glyph unicode="@" horiz-adv-x="899" d="M457 -121Q335 -121 246 -70T110 75T62 290Q62 413 111 507T249 655T460 709Q541 709 610 685T730 612T810 493T839 331Q839 255 818 198T757 110T657 78Q605 78 574 103T540 169H535Q522 128 494 104T417 79Q372 79 336
102T278 173T256 290Q256 361 277 407T335 478T417 502Q460 502 486 480T524 424H528V493H625V212Q625 182 637 170T673 157Q711 157 733 197T755 317V351Q755 437 717 499T612 596T460 631Q389 631 332 607T233 541T169 440T147 314V269Q147 200 168 143T231 45T329
-19T457 -42H674V-121H457ZM449 162Q472 162 490 171T518 198T528 235V353Q528 372 518 387T491 410T449 419Q407 419 385 394T362 326V254Q362 213 384 188T449 162Z" />
<glyph unicode="A" horiz-adv-x="670" d="M21 0L256 698H417L649 0H515L458 179H209L152 0H21ZM239 290H426L335 580H330L239 290Z" />
<glyph unicode="B" horiz-adv-x="662" d="M82 0V698H404Q490 698 539 649T589 519Q589 466 571 434T525 387T464 369V363Q487 363 513 354T562 326T600 276T615 200Q615 144 592 99T528 27T435 0H82ZM212 110H397Q423 110 441 119T469 145T479 188V222Q479 247
469 264T441 291T397 300H212V110ZM212 407H377Q401 407 418 415T445 441T455 482V513Q455 537 446 553T419 579T377 588H212V407Z" />
<glyph unicode="C" horiz-adv-x="641" d="M352 -12Q260 -12 193 28T90 147T53 344Q53 462 89 543T193 667T352 710Q445 710 507 670T606 550L496 491Q481 538 446 566T352 595Q278 595 234 544T190 402V293Q190 203 234 153T352 103Q412 103 449 135T504 214L609
152Q572 75 509 32T352 -12Z" />
<glyph unicode="D" horiz-adv-x="688" d="M82 0V698H336Q427 698 494 659T599 543T636 349Q636 233 599 156T495 39T336 0H82ZM212 115H336Q385 115 421 135T478 194T498 294V404Q498 464 478 504T422 563T336 583H212V115Z" />
<glyph unicode="E" horiz-adv-x="599" d="M82 0V698H541V583H212V410H504V296H212V115H541V0H82Z" />
<glyph unicode="F" horiz-adv-x="576" d="M82 0V698H530V583H212V410H489V296H212V0H82Z" />
<glyph unicode="G" horiz-adv-x="711" d="M340 -12Q258 -12 193 29T91 150T53 347Q53 464 91 545T200 668T362 710Q456 710 522 669T626 551L521 490Q502 536 464 565T362 595Q311 595 272 573T212 509T190 405V293Q190 231 211 189T272 125T365 103Q407 103 441
116T495 157T516 223V270H378V379H640V0H528V108H524Q515 57 467 23T340 -12Z" />
<glyph unicode="H" horiz-adv-x="718" d="M82 0V698H212V410H507V698H636V0H507V296H212V0H82Z" />
<glyph unicode="I" horiz-adv-x="421" d="M53 0V104H146V594H53V698H368V594H275V104H368V0H53Z" />
<glyph unicode="J" horiz-adv-x="543" d="M245 -11Q149 -11 95 39T26 172L146 197Q155 153 179 128T244 102Q284 102 309 127T335 205V592H114V698H465V195Q465 133 438 87T362 15T245 -11Z" />
<glyph unicode="K" horiz-adv-x="675" d="M82 0V698H212V353H217L316 483L491 698H640L397 407L660 0H506L305 317L212 207V0H82Z" />
<glyph unicode="L" horiz-adv-x="520" d="M82 0V698H212V115H488V0H82Z" />
<glyph unicode="M" horiz-adv-x="817" d="M82 0V698H227L408 355H411L590 698H734V0H612V501H608L554 394L408 128L264 394L209 506H205V0H82Z" />
<glyph unicode="N" horiz-adv-x="718" d="M82 0V698H225L438 336L510 191H513V698H636V0H493L281 362L208 507H205V0H82Z" />
<glyph unicode="O" horiz-adv-x="712" d="M356 -12Q265 -12 197 29T91 150T53 349Q53 467 90 547T196 669T356 710Q448 710 516 669T621 548T659 349Q659 231 622 151T516 29T356 -12ZM356 103Q407 103 444 126T501 192T522 295V403Q522 463 502 506T444 572T356
595Q306 595 269 572T211 506T190 403V295Q190 235 210 192T268 126T356 103Z" />
<glyph unicode="P" horiz-adv-x="639" d="M82 0V698H395Q459 698 505 671T576 596T601 483Q601 418 577 370T506 295T395 267H212V0H82ZM212 380H383Q409 380 427 389T456 416T467 459V506Q467 532 457 549T428 576T383 585H212V380Z" />
<glyph unicode="Q" horiz-adv-x="712" d="M434 -177Q366 -177 334 -144T302 -51V-8Q187 9 120 99T53 349Q53 467 90 547T196 669T356 710Q448 710 516 669T621 548T659 349Q659 195 596 105T424 -6V-71H531V-177H434ZM356 103Q407 103 444 126T501 192T522 295V403Q522
463 502 506T444 572T356 595Q306 595 269 572T211 506T190 403V295Q190 235 210 192T268 126T356 103Z" />
<glyph unicode="R" horiz-adv-x="663" d="M82 0V698H396Q459 698 505 672T576 597T601 483Q601 411 568 359T470 285L615 0H470L339 271H212V0H82ZM212 380H383Q409 380 427 389T456 416T467 459V506Q467 532 457 549T428 576T383 585H212V380Z" />
<glyph unicode="S" horiz-adv-x="610" d="M298 -12Q210 -12 147 20T39 104L127 189Q162 146 207 124T306 102Q368 102 399 129T431 202Q431 226 422 244T392 274T334 292L269 302Q199 314 153 339T83 407T60 505Q60 568 91 613T178 684T312 710Q391 710 450 684T550
607L462 523Q436 556 399 576T305 596Q248 596 219 575T189 513Q189 486 199 469T232 441T288 424L353 412Q424 400 469 374T537 308T560 209Q560 143 529 94T440 16T298 -12Z" />
<glyph unicode="T" horiz-adv-x="580" d="M225 0V583H25V698H555V583H355V0H225Z" />
<glyph unicode="U" horiz-adv-x="689" d="M343 -12Q246 -12 188 19T104 117T78 286V698H205V269Q205 214 218 177T263 122T344 103Q395 103 425 121T470 177T484 269V698H611V286Q611 184 585 118T500 20T343 -12Z" />
<glyph unicode="V" horiz-adv-x="636" d="M243 0L16 698H149L256 357L319 124H322L384 357L492 698H620L391 0H243Z" />
<glyph unicode="W" horiz-adv-x="946" d="M188 0L26 698H156L225 363L269 146H271L322 363L403 698H546L626 363L676 147H679L724 363L795 698H920L752 0H606L517 368L473 555H470L425 368L335 0H188Z" />
<glyph unicode="X" horiz-adv-x="653" d="M19 0L244 359L28 698H180L329 448H331L483 698H624L406 358L634 0H483L322 269H319L160 0H19Z" />
<glyph unicode="Y" horiz-adv-x="630" d="M250 0V274L10 698H156L318 401H320L478 698H620L380 276V0H250Z" />
<glyph unicode="Z" horiz-adv-x="598" d="M38 0V115L402 583H56V698H550V583L185 115H560V0H38Z" />
<glyph unicode="[" horiz-adv-x="328" d="M82 -138V760H275V670H197V-48H275V-138H82Z" />
<glyph unicode="\" horiz-adv-x="434" d="M322 -151L37 740H143L428 -151H322Z" />
<glyph unicode="]" horiz-adv-x="328" d="M53 -138V-48H132V670H53V760H246V-138H53Z" />
<glyph unicode="^" horiz-adv-x="600" d="M140 283L45 332L247 698H356L556 332L456 283L301 566H295L140 283Z" />
<glyph unicode="_" horiz-adv-x="559" d="M30 -182V-76H529V-182H30Z" />
<glyph unicode="`" horiz-adv-x="600" d="M287 581L162 751L269 804L363 618L287 581Z" />
<glyph unicode="a" horiz-adv-x="557" d="M204 -12Q124 -12 81 30T37 142Q37 196 63 231T140 284T261 302H350V341Q350 384 327 409T251 434Q207 434 179 414T132 367L58 434Q86 479 134 506T260 534Q365 534 420 486T475 348V100H528V0H458Q419 0 396 21T364
79L362 89H356Q343 40 303 14T204 -12ZM245 79Q275 79 298 88T336 114T350 156V226H267Q215 226 190 209T165 160V143Q165 112 186 96T245 79Z" />
<glyph unicode="b" horiz-adv-x="599" d="M349 -12Q297 -12 258 15T204 87H200V0H74V740H200V435H204Q218 481 257 507T349 534Q415 534 460 502T529 409T553 261Q553 175 530 114T461 20T349 -12ZM309 92Q359 92 390 126T422 216V306Q422 362 391 396T309 430Q278
430 253 420T214 390T200 346V178Q200 151 214 132T253 102T309 92Z" />
<glyph unicode="c" horiz-adv-x="512" d="M280 -12Q165 -12 103 62T40 261Q40 387 102 460T280 534Q359 534 410 499T484 402L382 356Q372 390 347 411T280 432Q226 432 199 398T171 308V213Q171 158 198 124T280 90Q325 90 351 113T392 172L488 125Q462 57 409
23T280 -12Z" />
<glyph unicode="d" horiz-adv-x="599" d="M250 -12Q185 -12 139 20T69 113T45 261Q45 348 69 409T139 502T250 534Q302 534 341 508T394 435H399V740H524V0H399V87H394Q379 42 341 15T250 -12ZM290 92Q321 92 345 102T384 131T399 178V346Q399 371 385 390T346
419T290 430Q240 430 209 396T177 306V216Q177 160 208 126T290 92Z" />
<glyph unicode="e" horiz-adv-x="558" d="M285 -12Q208 -12 153 21T69 116T40 261Q40 344 68 405T151 500T281 534Q362 534 414 498T492 403T518 271V229H170V216Q170 159 202 124T298 89Q346 89 377 109T431 160L500 85Q468 41 413 15T285 -12ZM170 307H387V317Q387
354 375 381T340 423T283 439Q249 439 224 424T184 380T170 315V307Z" />
<glyph unicode="f" horiz-adv-x="349" d="M101 0V422H24V522H101V598Q101 666 137 703T243 740H333V640H226V522H333V422H226V0H101Z" />
<glyph unicode="g" horiz-adv-x="544" d="M271 -212Q140 -212 85 -180T29 -88Q29 -45 53 -21T122 12V23Q90 31 73 54T56 108Q56 148 84 170T151 200V204Q104 226 80 265T56 357Q56 410 80 450T153 512T270 534Q296 534 319 531T362 521V537Q362 574 381 593T435
613H516V516H406V501Q446 478 466 441T486 357Q486 305 462 265T389 203T271 181Q249 181 229 183T192 190Q177 183 166 172T154 143Q154 123 171 113T222 103H360Q456 103 499 65T543 -44Q543 -99 516 -136T430 -193T271 -212ZM241 -125H305Q368 -125 397 -109T426
-60Q426 -34 406 -20T336 -6H159Q144 -16 137 -30T130 -60Q130 -90 155 -107T241 -125ZM271 267Q317 267 341 288T366 349V366Q366 406 342 426T271 447Q225 447 201 427T176 366V349Q176 309 200 288T271 267Z" />
<glyph unicode="h" d="M74 0V740H200V435H205Q221 477 255 505T351 534Q431 534 474 481T518 330V0H393V317Q393 373 373 401T305 430Q278 430 254 421T215 393T200 346V0H74Z" />
<glyph unicode="i" horiz-adv-x="274" d="M74 0V522H200V0H74ZM137 600Q99 600 81 618T63 663V682Q63 710 81 728T137 746Q176 746 193 728T211 682V663Q211 636 194 618T137 600Z" />
<glyph unicode="j" horiz-adv-x="274" d="M-6 -200V-100H74V522H200V-64Q200 -128 167 -164T64 -200H-6ZM137 600Q99 600 81 618T63 663V682Q63 710 81 728T137 746Q176 746 193 728T211 682V663Q211 636 194 618T137 600Z" />
<glyph unicode="k" horiz-adv-x="560" d="M74 0V740H200V292H205L275 386L393 522H535L355 320L555 0H405L269 236L200 160V0H74Z" />
<glyph unicode="l" horiz-adv-x="293" d="M201 0Q136 0 105 32T74 124V740H200V100H269V0H201Z" />
<glyph unicode="m" horiz-adv-x="887" d="M74 0V522H200V435H205Q220 476 253 505T345 534Q398 534 438 508T496 428H499Q513 472 554 503T658 534Q735 534 776 481T818 330V0H693V317Q693 374 673 402T607 430Q582 430 560 421T523 393T509 346V0H384V317Q384
374 363 402T299 430Q274 430 252 421T215 393T200 346V0H74Z" />
<glyph unicode="n" d="M74 0V522H200V435H205Q221 477 255 505T351 534Q431 534 474 481T518 330V0H393V317Q393 373 373 401T305 430Q278 430 254 421T215 393T200 346V0H74Z" />
<glyph unicode="o" horiz-adv-x="563" d="M281 -12Q207 -12 153 21T70 116T40 261Q40 345 69 406T153 500T281 534Q356 534 410 501T493 406T523 261Q523 178 494 117T410 22T281 -12ZM281 90Q332 90 362 121T392 213V309Q392 370 362 401T281 432Q231 432 201
401T171 309V213Q171 153 201 122T281 90Z" />
<glyph unicode="p" horiz-adv-x="599" d="M74 -200V522H200V435H204Q218 481 257 507T349 534Q415 534 460 502T529 409T553 261Q553 175 530 114T461 20T349 -12Q297 -12 258 15T204 87H200V-200H74ZM309 92Q359 92 390 126T422 216V306Q422 362 391 396T309
430Q278 430 253 420T214 390T200 346V178Q200 151 214 132T253 102T309 92Z" />
<glyph unicode="q" horiz-adv-x="599" d="M399 -200V87H394Q379 42 341 15T250 -12Q185 -12 139 20T69 113T45 261Q45 348 69 409T139 502T250 534Q302 534 341 508T394 435H399V522H524V-200H399ZM290 92Q321 92 345 102T384 131T399 178V346Q399 371 385 390T346
419T290 430Q240 430 209 396T177 306V216Q177 160 208 126T290 92Z" />
<glyph unicode="r" horiz-adv-x="392" d="M74 0V522H200V414H205Q212 442 229 466T274 506T344 522H371V403H331Q288 403 259 395T215 368T200 321V0H74Z" />
<glyph unicode="s" horiz-adv-x="498" d="M245 -12Q170 -12 119 13T29 84L106 158Q135 125 170 106T250 87Q296 87 317 103T338 149Q338 172 323 186T273 205L221 212Q166 219 127 238T68 289T48 369Q48 446 102 490T245 534Q296 534 332 525T395 497T448 452L373
378Q351 402 319 418T248 435Q207 435 188 420T168 379Q168 352 184 339T238 319L290 312Q376 300 417 262T458 158Q458 108 432 70T358 10T245 -12Z" />
<glyph unicode="t" horiz-adv-x="372" d="M235 0Q171 0 137 34T103 130V422H25V522H66Q94 522 104 535T115 575V664H228V522H335V422H228V100H327V0H235Z" />
<glyph unicode="u" horiz-adv-x="586" d="M235 -12Q156 -12 112 41T68 192V522H193V205Q193 150 215 121T283 92Q309 92 332 101T371 129T386 176V522H512V0H386V87H382Q368 48 334 18T235 -12Z" />
<glyph unicode="v" horiz-adv-x="523" d="M187 0L12 522H136L209 295L261 110H268L319 295L392 522H511L335 0H187Z" />
<glyph unicode="w" horiz-adv-x="817" d="M167 0L23 522H144L197 306L239 124H242L291 306L353 522H467L530 306L580 124H583L625 306L677 522H794L651 0H515L448 231L409 374H406L367 231L301 0H167Z" />
<glyph unicode="x" horiz-adv-x="542" d="M19 0L198 265L23 522H166L275 348H279L388 522H521L345 263L523 0H380L268 181H264L151 0H19Z" />
<glyph unicode="y" horiz-adv-x="522" d="M79 -200V-100H172L197 -25L10 522H134L227 242L260 112H266L301 242L394 522H513L301 -94Q289 -131 271 -154T224 -189T154 -200H79Z" />
<glyph unicode="z" horiz-adv-x="500" d="M37 0V100L309 422H46V522H456V425L181 100H463V0H37Z" />
<glyph unicode="{" horiz-adv-x="362" d="M208 -138Q168 -138 143 -113T117 -43V172Q117 216 90 238T20 261V362Q62 362 89 385T117 451V665Q117 710 142 735T208 760H309V670H231V443Q231 395 202 359T130 315V307Q172 299 201 263T231 179V-48H309V-138H208Z" />
<glyph unicode="|" horiz-adv-x="373" d="M133 -138V760H240V-138H133Z" />
<glyph unicode="}" horiz-adv-x="362" d="M53 -138V-48H131V180Q131 228 160 264T232 308V316Q190 324 161 359T131 444V670H53V760H154Q195 760 220 735T245 665V451Q245 408 272 385T342 362V261Q300 261 273 239T245 172V-43Q245 -87 220 -112T154 -138H53Z" />
<glyph unicode="~" horiz-adv-x="600" d="M417 220Q380 220 352 230T290 256Q263 270 237 280T179 290Q156 290 139 283T99 261L56 332Q74 357 104 374T183 391Q220 391 248 382T310 355Q337 342 363 332T421 322Q445 322 462 329T501 350L544 280Q526 255 496
238T417 220Z" />
<glyph unicode="&#xa0;" horiz-adv-x="236" />
<glyph unicode="&#xa1;" horiz-adv-x="308" d="M87 -176V21L126 314H181L220 21V-176H87ZM154 374Q112 374 93 394T74 444V464Q74 494 93 514T154 534Q196 534 215 514T234 464V444Q234 414 215 394T154 374Z" />
<glyph unicode="&#xa2;" horiz-adv-x="539" d="M236 -114V-8Q144 9 94 78T43 258Q43 368 94 438T236 524V630H333V525Q394 517 433 485T495 404L403 354Q392 380 373 399T327 426V89Q357 97 378 117T413 165L503 112Q481 64 439 32T333 -9V-114H236ZM243 92V424Q206
412 186 380T166 301V215Q166 170 185 137T243 92Z" />
<glyph unicode="&#xa3;" horiz-adv-x="586" d="M71 0V124Q111 141 131 174T151 251Q151 261 150 270T147 289H43V393H110Q102 418 95 445T88 503Q88 565 118 611T202 684T331 710Q411 710 466 680T560 591L466 525Q439 562 407 580T333 598Q279 598 249 569T219
484Q219 459 224 437T238 393H440V289H274Q276 281 276 274T277 257Q277 204 253 169T200 118V110H544V0H71Z" />
<glyph unicode="&#xa4;" horiz-adv-x="623" d="M83 51L13 120L109 216Q77 271 77 349Q77 427 109 482L13 578L83 647L177 552Q232 587 311 587Q391 587 445 552L540 647L610 578L514 482Q546 427 546 349Q546 271 514 216L610 120L540 51L445 146Q391 111 311
111Q232 111 177 146L83 51ZM311 205Q361 205 390 234T419 320V378Q419 434 390 463T311 493Q261 493 233 464T204 378V320Q204 264 232 235T311 205Z" />
<glyph unicode="&#xa5;" horiz-adv-x="635" d="M251 0V137H80V219H251V297H80V379H199L24 698H170L320 410H323L471 698H611L433 379H551V297H381V219H551V137H381V0H251Z" />
<glyph unicode="&#xa6;" horiz-adv-x="373" d="M133 403V760H240V403H133ZM133 -138V219H240V-138H133Z" />
<glyph unicode="&#xa7;" horiz-adv-x="575" d="M273 -159Q223 -159 174 -144T85 -92L148 -15Q173 -39 204 -52T275 -66Q321 -66 348 -48T375 5Q375 26 365 40T334 65T282 85L210 105Q126 129 93 169T59 255Q59 300 85 336T166 395V408Q132 431 111 465T90 545Q90
597 117 634T191 690T300 710Q350 710 400 696T490 643L426 566Q400 590 370 603T298 617Q254 617 227 600T199 548Q199 529 209 515T240 490T292 471L364 450Q448 427 482 386T516 299Q516 255 489 219T407 160V147Q443 124 463 90T484 10Q484 -42 457 -80T383
-138T273 -159ZM362 170Q384 191 396 213T408 262Q408 294 388 317T315 355L244 375Q236 377 228 379T212 385Q191 365 179 342T166 292Q166 261 186 239T258 201L330 181Q338 179 346 176T362 170Z" />
<glyph unicode="&#xa8;" horiz-adv-x="600" d="M404 606Q366 606 351 622T335 663V684Q335 708 350 724T404 741Q443 741 458 725T474 684V663Q474 639 459 623T404 606ZM196 606Q157 606 142 622T126 663V684Q126 708 141 724T196 741Q234 741 249 725T265 684V663Q265
639 250 623T196 606Z" />
<glyph unicode="&#xa9;" horiz-adv-x="787" d="M393 -12Q295 -12 217 32T95 157T50 349Q50 461 94 541T217 666T393 710Q493 710 570 666T692 542T737 349Q737 238 693 157T571 32T393 -12ZM393 51Q473 51 534 86T630 181T665 316V382Q665 457 630 517T534 612T393
647Q315 647 254 612T157 517T122 382V316Q122 241 157 181T253 86T393 51ZM401 141Q310 141 259 198T207 349Q207 444 258 500T401 557Q466 557 506 528T566 453L480 410Q468 436 450 451T401 467Q364 467 344 445T324 386V311Q324 275 344 253T401 230Q433 230
453 246T488 289L573 246Q553 203 513 172T401 141Z" />
<glyph unicode="&#xaa;" horiz-adv-x="432" d="M156 331Q105 331 75 359T44 436Q44 491 84 518T200 545H261V567Q261 602 246 619T194 636Q162 636 141 623T106 589L55 633Q72 663 108 683T203 704Q272 704 312 670T352 570V405H390V337H339Q314 337 294 349T270
392L269 397H265Q255 367 227 349T156 331ZM188 393Q218 393 239 407T261 449V492H202Q168 492 150 481T132 448V435Q132 413 147 403T188 393Z" />
<glyph unicode="&#xab;" horiz-adv-x="543" d="M456 59L268 221V331L456 493L492 413L367 276L492 139L456 59ZM225 59L37 221V331L225 493L262 413L136 276L262 139L225 59Z" />
<glyph unicode="&#xac;" horiz-adv-x="600" d="M429 78V255H57V356H533V78H429Z" />
<glyph unicode="&#xad;" horiz-adv-x="402" d="M58 242V367H343V242H58Z" />
<glyph unicode="&#xae;" horiz-adv-x="468" d="M234 298Q179 298 133 325T60 398T33 504Q33 563 60 609T133 683T234 710Q290 710 335 683T408 610T435 504Q435 445 408 399T336 325T234 298ZM234 343Q276 343 310 361T364 413T384 490V518Q384 562 364 595T310
646T234 665Q192 665 158 647T104 595T84 518V490Q84 446 104 413T158 362T234 343ZM151 399V608H249Q287 608 305 589T324 540Q324 515 314 499T286 476L331 399H270L234 466H207V399H151ZM207 508H240Q253 508 259 513T266 530V542Q266 554 260 559T240 565H207V508Z"
/>
<glyph unicode="&#xaf;" horiz-adv-x="600" d="M151 628V720H449V628H151Z" />
<glyph unicode="&#xb0;" horiz-adv-x="469" d="M235 345Q184 345 144 368T79 433T55 527Q55 579 79 620T143 686T235 710Q286 710 326 686T390 621T414 527Q414 475 391 434T327 369T235 345ZM235 429Q262 429 281 442T312 477T323 527Q323 555 312 577T282 612T235
625Q208 625 188 613T157 578T146 528Q146 500 157 478T188 442T235 429Z" />
<glyph unicode="&#xb1;" horiz-adv-x="600" d="M245 173V351H67V453H245V629H355V453H533V351H355V173H245ZM67 0V102H533V0H67Z" />
<glyph unicode="&#xb2;" horiz-adv-x="347" d="M35 329V407L151 497Q186 524 201 542T216 585V588Q216 610 201 619T166 629Q138 629 124 615T103 580L26 609Q39 648 75 676T174 704Q240 704 275 673T311 592Q311 543 279 509T204 448L132 401H318V329H35Z" />
<glyph unicode="&#xb3;" horiz-adv-x="345" d="M159 323Q98 323 64 344T11 395L77 445Q89 422 108 407T159 392Q187 392 202 405T218 439V443Q218 464 201 473T152 482H116V554H152Q183 554 197 564T211 589V593Q211 611 198 623T160 635Q136 635 115 624T79 591L23
642Q46 671 78 687T162 704Q228 704 267 677T306 605Q306 570 283 549T229 523V519Q266 513 289 491T312 432Q312 382 270 353T159 323Z" />
<glyph unicode="&#xb4;" horiz-adv-x="600" d="M313 581L237 618L331 804L438 751L313 581Z" />
<glyph unicode="&#xb5;" horiz-adv-x="592" d="M74 -200V522H200V204Q200 149 221 121T288 92Q316 92 339 101T378 130T393 177V522H518V0H393V87H388Q374 48 344 18T263 -12Q232 -12 212 0T182 33H177L200 -86V-200H74Z" />
<glyph unicode="&#xb6;" horiz-adv-x="669" d="M243 -149V273Q186 273 140 302T66 379T38 486Q38 544 65 592T139 669T243 698H606V605H540V-149H443V605H340V-149H243Z" />
<glyph unicode="&#xb7;" horiz-adv-x="347" d="M174 222Q133 222 114 243T95 295V312Q95 344 114 364T174 385Q214 385 233 365T253 312V295Q253 264 234 243T174 222Z" />
<glyph unicode="&#xb8;" horiz-adv-x="600" d="M313 -210Q265 -210 238 -196T198 -167L241 -116Q251 -128 267 -136T305 -145Q324 -145 336 -139T349 -118Q349 -106 336 -94T277 -78L253 -75L274 27H336L318 -57L322 -61Q333 -58 344 -56T367 -54Q397 -54 417
-70T438 -122Q438 -154 421 -173T375 -201T313 -210Z" />
<glyph unicode="&#xb9;" horiz-adv-x="349" d="M51 329V398H149V628H143L73 543L16 587L107 698H238V398H324V329H51Z" />
<glyph unicode="&#xba;" horiz-adv-x="421" d="M211 331Q131 331 86 381T40 517Q40 604 85 654T211 704Q291 704 336 654T382 517Q382 431 337 381T211 331ZM211 400Q248 400 268 423T288 487V547Q288 589 268 612T211 635Q174 635 154 612T134 547V487Q134 446
154 423T211 400Z" />
<glyph unicode="&#xbb;" horiz-adv-x="543" d="M318 59L281 139L407 276L281 413L318 493L506 331V221L318 59ZM87 59L51 139L176 276L51 413L87 493L275 331V221L87 59Z" />
<glyph unicode="&#xbc;" horiz-adv-x="840" d="M51 329V398H149V628H143L73 543L16 587L107 698H238V398H324V329H51ZM133 0L648 698H742L227 0H133ZM686 0V71H512V145L666 369H771V137H821V71H771V0H686ZM583 137H686V277H680L583 137Z" />
<glyph unicode="&#xbd;" horiz-adv-x="863" d="M51 329V398H149V628H143L73 543L16 587L107 698H238V398H324V329H51ZM133 0L648 698H742L227 0H133ZM552 0V78L668 168Q703 195 718 214T733 256V259Q733 281 718 290T683 300Q655 300 641 286T620 251L543 280Q556
319 592 347T691 375Q757 375 792 344T828 263Q828 214 796 180T720 119L649 72H835V0H552Z" />
<glyph unicode="&#xbe;" horiz-adv-x="827" d="M159 323Q98 323 64 344T11 395L77 445Q89 422 108 407T159 392Q187 392 202 405T218 439V443Q218 464 201 473T152 482H116V554H152Q183 554 197 564T211 589V593Q211 611 198 623T160 635Q136 635 115 624T79 591L23
642Q46 671 78 687T162 704Q228 704 267 677T306 605Q306 570 283 549T229 523V519Q266 513 289 491T312 432Q312 382 270 353T159 323ZM119 0L634 698H728L214 0H119ZM672 0V71H499V145L653 369H758V137H807V71H758V0H672ZM570 137H672V277H666L570 137Z" />
<glyph unicode="&#xbf;" horiz-adv-x="485" d="M253 -188Q186 -188 136 -163T58 -93T30 12Q30 71 55 113T121 180T208 213V297H327V141Q247 137 206 110T164 24V10Q164 -33 189 -56T257 -80Q302 -80 330 -53T369 16L475 -27Q464 -68 437 -105T364 -165T253 -188ZM267
374Q226 374 207 394T188 444V464Q188 494 207 514T267 534Q309 534 328 514T347 464V444Q347 414 328 394T267 374Z" />
<glyph unicode="&#xc0;" horiz-adv-x="670" d="M21 0L256 698H417L649 0H515L458 179H209L152 0H21ZM239 290H426L335 580H330L239 290ZM322 745L197 915L304 968L398 782L322 745Z" />
<glyph unicode="&#xc1;" horiz-adv-x="670" d="M21 0L256 698H417L649 0H515L458 179H209L152 0H21ZM239 290H426L335 580H330L239 290ZM347 745L271 782L365 968L472 915L347 745Z" />
<glyph unicode="&#xc2;" horiz-adv-x="670" d="M21 0L256 698H417L649 0H515L458 179H209L152 0H21ZM239 290H426L335 580H330L239 290ZM215 746L152 795L277 949H393L518 795L455 746L335 862L215 746Z" />
<glyph unicode="&#xc3;" horiz-adv-x="670" d="M21 0L256 698H417L649 0H515L458 179H209L152 0H21ZM239 290H426L335 580H330L239 290ZM410 769Q387 769 369 776T332 791Q309 801 292 807T257 813Q240 813 227 807T198 788L152 846Q169 871 195 889T260 907Q284
907 302 900T338 885Q361 874 378 868T413 862Q430 862 443 868T472 888L518 829Q501 804 475 787T410 769Z" />
<glyph unicode="&#xc4;" horiz-adv-x="670" d="M21 0L256 698H417L649 0H515L458 179H209L152 0H21ZM239 290H426L335 580H330L239 290ZM439 770Q401 770 385 786T369 828V848Q369 873 385 889T439 906Q478 906 493 890T509 848V828Q509 803 494 787T439 770ZM231
770Q192 770 177 786T161 828V848Q161 873 176 889T231 906Q269 906 285 890T301 848V828Q301 803 285 787T231 770Z" />
<glyph unicode="&#xc5;" horiz-adv-x="670" d="M21 0L256 698H417L649 0H515L458 179H209L152 0H21ZM239 290H426L335 580H330L239 290ZM335 728Q297 728 266 745T216 793T198 862Q198 901 216 931T265 978T335 995Q374 995 405 978T454 931T472 862Q472 823 454
793T405 746T335 728ZM335 794Q361 794 374 808T388 847V877Q388 901 375 915T335 929Q309 929 296 915T282 877V847Q282 823 295 809T335 794Z" />
<glyph unicode="&#xc6;" horiz-adv-x="948" d="M1 0L347 698H890V583H559V410H852V296H559V115H890V0H431V179H217L131 0H1ZM269 290H431V583H411L269 290Z" />
<glyph unicode="&#xc7;" horiz-adv-x="641" d="M349 -210Q301 -210 273 -196T233 -167L276 -116Q286 -128 302 -136T341 -145Q360 -145 372 -139T385 -118Q385 -106 371 -94T312 -78L289 -75L302 -8Q186 6 120 95T53 344Q53 462 89 543T193 667T352 710Q445 710
507 670T606 550L496 491Q481 538 446 566T352 595Q278 595 234 544T190 402V293Q190 203 234 153T352 103Q412 103 449 135T504 214L609 152Q573 77 512 34T363 -12L354 -57L357 -61Q369 -58 380 -56T402 -54Q432 -54 453 -70T474 -122Q474 -154 456 -173T410
-201T349 -210Z" />
<glyph unicode="&#xc8;" horiz-adv-x="599" d="M82 0V698H541V583H212V410H504V296H212V115H541V0H82ZM299 745L174 915L281 968L375 782L299 745Z" />
<glyph unicode="&#xc9;" horiz-adv-x="599" d="M82 0V698H541V583H212V410H504V296H212V115H541V0H82ZM324 745L248 782L342 968L449 915L324 745Z" />
<glyph unicode="&#xca;" horiz-adv-x="599" d="M82 0V698H541V583H212V410H504V296H212V115H541V0H82ZM192 746L129 795L254 949H370L495 795L432 746L312 862L192 746Z" />
<glyph unicode="&#xcb;" horiz-adv-x="599" d="M82 0V698H541V583H212V410H504V296H212V115H541V0H82ZM416 770Q378 770 362 786T346 828V848Q346 873 362 889T416 906Q455 906 470 890T486 848V828Q486 803 471 787T416 770ZM208 770Q169 770 154 786T138 828V848Q138
873 153 889T208 906Q246 906 262 890T278 848V828Q278 803 262 787T208 770Z" />
<glyph unicode="&#xcc;" horiz-adv-x="421" d="M53 0V104H146V594H53V698H368V594H275V104H368V0H53ZM454 745L329 915L436 968L530 782L454 745Z" />
<glyph unicode="&#xcd;" horiz-adv-x="421" d="M53 0V104H146V594H53V698H368V594H275V104H368V0H53ZM479 745L403 782L497 968L604 915L479 745Z" />
<glyph unicode="&#xce;" horiz-adv-x="421" d="M53 0V104H146V594H53V698H368V594H275V104H368V0H53ZM347 746L284 795L409 949H525L650 795L587 746L467 862L347 746Z" />
<glyph unicode="&#xcf;" horiz-adv-x="421" d="M53 0V104H146V594H53V698H368V594H275V104H368V0H53ZM571 770Q533 770 517 786T501 828V848Q501 873 517 889T571 906Q610 906 625 890T641 848V828Q641 803 626 787T571 770ZM363 770Q324 770 309 786T293 828V848Q293
873 308 889T363 906Q401 906 417 890T433 848V828Q433 803 417 787T363 770Z" />
<glyph unicode="&#xd0;" horiz-adv-x="693" d="M87 0V310H10V408H87V698H340Q431 698 498 659T603 543T640 349Q640 233 603 156T499 39T340 0H87ZM216 115H340Q389 115 426 135T483 194T503 294V404Q503 464 483 504T426 563T340 583H216V408H341V310H216V115Z" />
<glyph unicode="&#xd1;" horiz-adv-x="718" d="M82 0V698H225L438 336L510 191H513V698H636V0H493L281 362L208 507H205V0H82ZM434 769Q411 769 393 776T356 791Q333 801 316 807T281 813Q264 813 251 807T222 788L176 846Q193 871 219 889T284 907Q308 907 326
900T362 885Q385 874 402 868T437 862Q454 862 467 868T496 888L542 829Q525 804 499 787T434 769Z" />
<glyph unicode="&#xd2;" horiz-adv-x="712" d="M356 -12Q265 -12 197 29T91 150T53 349Q53 467 90 547T196 669T356 710Q448 710 516 669T621 548T659 349Q659 231 622 151T516 29T356 -12ZM356 103Q407 103 444 126T501 192T522 295V403Q522 463 502 506T444
572T356 595Q306 595 269 572T211 506T190 403V295Q190 235 210 192T268 126T356 103ZM343 745L218 915L325 968L419 782L343 745Z" />
<glyph unicode="&#xd3;" horiz-adv-x="712" d="M356 -12Q265 -12 197 29T91 150T53 349Q53 467 90 547T196 669T356 710Q448 710 516 669T621 548T659 349Q659 231 622 151T516 29T356 -12ZM356 103Q407 103 444 126T501 192T522 295V403Q522 463 502 506T444
572T356 595Q306 595 269 572T211 506T190 403V295Q190 235 210 192T268 126T356 103ZM368 745L292 782L386 968L493 915L368 745Z" />
<glyph unicode="&#xd4;" horiz-adv-x="712" d="M356 -12Q265 -12 197 29T91 150T53 349Q53 467 90 547T196 669T356 710Q448 710 516 669T621 548T659 349Q659 231 622 151T516 29T356 -12ZM356 103Q407 103 444 126T501 192T522 295V403Q522 463 502 506T444
572T356 595Q306 595 269 572T211 506T190 403V295Q190 235 210 192T268 126T356 103ZM236 746L173 795L298 949H414L539 795L476 746L356 862L236 746Z" />
<glyph unicode="&#xd5;" horiz-adv-x="712" d="M356 -12Q265 -12 197 29T91 150T53 349Q53 467 90 547T196 669T356 710Q448 710 516 669T621 548T659 349Q659 231 622 151T516 29T356 -12ZM356 103Q407 103 444 126T501 192T522 295V403Q522 463 502 506T444
572T356 595Q306 595 269 572T211 506T190 403V295Q190 235 210 192T268 126T356 103ZM431 769Q408 769 390 776T353 791Q330 801 313 807T278 813Q261 813 248 807T219 788L173 846Q190 871 216 889T281 907Q305 907 323 900T359 885Q382 874 399 868T434 862Q451
862 464 868T493 888L539 829Q522 804 496 787T431 769Z" />
<glyph unicode="&#xd6;" horiz-adv-x="712" d="M356 -12Q265 -12 197 29T91 150T53 349Q53 467 90 547T196 669T356 710Q448 710 516 669T621 548T659 349Q659 231 622 151T516 29T356 -12ZM356 103Q407 103 444 126T501 192T522 295V403Q522 463 502 506T444
572T356 595Q306 595 269 572T211 506T190 403V295Q190 235 210 192T268 126T356 103ZM460 770Q422 770 406 786T390 828V848Q390 873 406 889T460 906Q499 906 514 890T530 848V828Q530 803 515 787T460 770ZM252 770Q213 770 198 786T182 828V848Q182 873 197
889T252 906Q290 906 306 890T322 848V828Q322 803 306 787T252 770Z" />
<glyph unicode="&#xd7;" horiz-adv-x="600" d="M154 78L83 149L229 301L83 453L154 524L300 372L446 524L517 453L371 301L517 149L446 78L300 230L154 78Z" />
<glyph unicode="&#xd8;" horiz-adv-x="712" d="M143 -52L63 -1L126 92Q91 137 72 201T53 349Q53 467 90 547T196 669T356 710Q446 710 514 670L569 750L649 699L586 606Q621 561 640 497T659 349Q659 231 622 151T516 29T356 -12Q266 -12 198 28L143 -52ZM356
96Q408 96 446 119T506 187T527 293V405Q527 433 522 458T508 504L259 124Q298 96 356 96ZM204 194L453 574Q414 602 356 602Q304 602 266 579T206 511T185 405V293Q185 265 190 240T204 194Z" />
<glyph unicode="&#xd9;" horiz-adv-x="689" d="M343 -12Q246 -12 188 19T104 117T78 286V698H205V269Q205 214 218 177T263 122T344 103Q395 103 425 121T470 177T484 269V698H611V286Q611 184 585 118T500 20T343 -12ZM331 745L206 915L313 968L407 782L331 745Z" />
<glyph unicode="&#xda;" horiz-adv-x="689" d="M343 -12Q246 -12 188 19T104 117T78 286V698H205V269Q205 214 218 177T263 122T344 103Q395 103 425 121T470 177T484 269V698H611V286Q611 184 585 118T500 20T343 -12ZM356 745L280 782L374 968L481 915L356 745Z" />
<glyph unicode="&#xdb;" horiz-adv-x="689" d="M343 -12Q246 -12 188 19T104 117T78 286V698H205V269Q205 214 218 177T263 122T344 103Q395 103 425 121T470 177T484 269V698H611V286Q611 184 585 118T500 20T343 -12ZM224 746L161 795L286 949H402L527 795L464
746L344 862L224 746Z" />
<glyph unicode="&#xdc;" horiz-adv-x="689" d="M343 -12Q246 -12 188 19T104 117T78 286V698H205V269Q205 214 218 177T263 122T344 103Q395 103 425 121T470 177T484 269V698H611V286Q611 184 585 118T500 20T343 -12ZM448 770Q410 770 394 786T378 828V848Q378
873 394 889T448 906Q487 906 502 890T518 848V828Q518 803 503 787T448 770ZM240 770Q201 770 186 786T170 828V848Q170 873 185 889T240 906Q278 906 294 890T310 848V828Q310 803 294 787T240 770Z" />
<glyph unicode="&#xdd;" horiz-adv-x="630" d="M250 0V274L10 698H156L318 401H320L478 698H620L380 276V0H250ZM328 745L252 782L346 968L453 915L328 745Z" />
<glyph unicode="&#xde;" horiz-adv-x="639" d="M82 0V698H212V570H395Q459 570 505 543T576 467T601 355Q601 291 577 243T506 167T395 139H212V0H82ZM212 252H383Q409 252 427 261T456 289T467 332V378Q467 404 457 421T428 447T383 457H212V252Z" />
<glyph unicode="&#xdf;" horiz-adv-x="675" d="M459 -12Q397 -12 352 7T276 66L350 139Q374 111 401 98T460 84Q494 84 513 101T533 150Q533 177 518 193T465 220L434 229Q398 239 370 257T327 303T311 375Q311 437 351 476T464 527V530Q464 595 435 625T345 656Q285
656 256 626T226 530V0H101V422H24V522H101V526Q101 596 131 647T215 725T342 752Q415 752 469 725T552 648T581 528V443H528Q493 443 471 437T438 419T427 385Q427 356 444 344T495 320L526 311Q586 294 617 260T649 165Q649 83 597 36T459 -12Z" />
<glyph unicode="&#xe0;" horiz-adv-x="557" d="M204 -12Q124 -12 81 30T37 142Q37 196 63 231T140 284T261 302H350V341Q350 384 327 409T251 434Q207 434 179 414T132 367L58 434Q86 479 134 506T260 534Q365 534 420 486T475 348V100H528V0H458Q419 0 396 21T364
79L362 89H356Q343 40 303 14T204 -12ZM245 79Q275 79 298 88T336 114T350 156V226H267Q215 226 190 209T165 160V143Q165 112 186 96T245 79ZM506 581L381 751L488 804L582 618L506 581Z" />
<glyph unicode="&#xe1;" horiz-adv-x="557" d="M204 -12Q124 -12 81 30T37 142Q37 196 63 231T140 284T261 302H350V341Q350 384 327 409T251 434Q207 434 179 414T132 367L58 434Q86 479 134 506T260 534Q365 534 420 486T475 348V100H528V0H458Q419 0 396 21T364
79L362 89H356Q343 40 303 14T204 -12ZM245 79Q275 79 298 88T336 114T350 156V226H267Q215 226 190 209T165 160V143Q165 112 186 96T245 79ZM532 581L456 618L550 804L657 751L532 581Z" />
<glyph unicode="&#xe2;" horiz-adv-x="557" d="M204 -12Q124 -12 81 30T37 142Q37 196 63 231T140 284T261 302H350V341Q350 384 327 409T251 434Q207 434 179 414T132 367L58 434Q86 479 134 506T260 534Q365 534 420 486T475 348V100H528V0H458Q419 0 396 21T364
79L362 89H356Q343 40 303 14T204 -12ZM245 79Q275 79 298 88T336 114T350 156V226H267Q215 226 190 209T165 160V143Q165 112 186 96T245 79ZM399 582L336 631L461 785H577L702 631L639 582L519 698L399 582Z" />
<glyph unicode="&#xe3;" horiz-adv-x="557" d="M204 -12Q124 -12 81 30T37 142Q37 196 63 231T140 284T261 302H350V341Q350 384 327 409T251 434Q207 434 179 414T132 367L58 434Q86 479 134 506T260 534Q365 534 420 486T475 348V100H528V0H458Q419 0 396 21T364
79L362 89H356Q343 40 303 14T204 -12ZM245 79Q275 79 298 88T336 114T350 156V226H267Q215 226 190 209T165 160V143Q165 112 186 96T245 79ZM594 605Q571 605 553 612T516 627Q493 637 476 643T441 649Q424 649 411 643T382 624L336 682Q353 707 379 725T444
743Q468 743 486 736T522 721Q545 710 562 704T597 698Q614 698 627 704T656 724L702 665Q685 640 659 623T594 605Z" />
<glyph unicode="&#xe4;" horiz-adv-x="557" d="M204 -12Q124 -12 81 30T37 142Q37 196 63 231T140 284T261 302H350V341Q350 384 327 409T251 434Q207 434 179 414T132 367L58 434Q86 479 134 506T260 534Q365 534 420 486T475 348V100H528V0H458Q419 0 396 21T364
79L362 89H356Q343 40 303 14T204 -12ZM245 79Q275 79 298 88T336 114T350 156V226H267Q215 226 190 209T165 160V143Q165 112 186 96T245 79ZM623 606Q585 606 570 622T554 663V684Q554 708 569 724T623 741Q662 741 677 725T693 684V663Q693 639 678 623T623
606ZM415 606Q376 606 361 622T345 663V684Q345 708 360 724T415 741Q453 741 468 725T484 684V663Q484 639 469 623T415 606Z" />
<glyph unicode="&#xe5;" horiz-adv-x="557" d="M204 -12Q124 -12 81 30T37 142Q37 196 63 231T140 284T261 302H350V341Q350 384 327 409T251 434Q207 434 179 414T132 367L58 434Q86 479 134 506T260 534Q365 534 420 486T475 348V100H528V0H458Q419 0 396 21T364
79L362 89H356Q343 40 303 14T204 -12ZM245 79Q275 79 298 88T336 114T350 156V226H267Q215 226 190 209T165 160V143Q165 112 186 96T245 79ZM519 564Q481 564 450 581T400 629T382 698Q382 737 400 767T449 814T519 831Q558 831 589 814T638 767T656 698Q656
659 638 629T589 582T519 564ZM519 630Q545 630 558 644T572 683V713Q572 737 559 751T519 765Q493 765 480 751T466 713V683Q466 658 479 644T519 630Z" />
<glyph unicode="&#xe6;" horiz-adv-x="864" d="M204 -12Q125 -12 81 31T37 143Q37 198 64 234T142 288T261 307H350V341Q350 384 327 409T252 434Q207 434 179 415T132 367L58 434Q86 479 134 506T260 534Q301 534 330 522T380 490T413 446H419Q432 471 456 491T516
522T593 534Q673 534 724 498T800 403T824 271V229H475V216Q475 160 509 125T606 90Q654 90 686 110T740 160L808 85Q776 41 722 15T596 -12Q546 -12 505 3T436 43T397 95H391Q382 69 359 45T298 4T204 -12ZM246 79Q275 79 298 88T336 114T350 156V229H267Q217
229 191 212T165 163V147Q165 115 185 97T246 79ZM476 307H694V317Q694 354 682 381T647 423T589 439Q556 439 530 424T490 380T476 315V307Z" />
<glyph unicode="&#xe7;" horiz-adv-x="512" d="M279 -210Q231 -210 204 -196T164 -167L207 -116Q217 -128 233 -136T271 -145Q290 -145 302 -139T315 -118Q315 -106 302 -94T243 -78L219 -75L233 -8Q140 6 90 78T40 261Q40 387 102 460T280 534Q359 534 410 499T484
403L382 356Q372 390 347 411T280 432Q226 432 199 398T171 308V213Q171 158 198 124T280 90Q325 90 351 113T392 172L488 125Q464 60 414 26T294 -12L284 -57L288 -61Q299 -58 310 -56T333 -54Q363 -54 383 -70T404 -122Q404 -154 387 -173T341 -201T279 -210Z"
/>
<glyph unicode="&#xe8;" horiz-adv-x="558" d="M285 -12Q208 -12 153 21T69 116T40 261Q40 344 68 405T151 500T281 534Q362 534 414 498T492 403T518 271V229H170V216Q170 159 202 124T298 89Q346 89 377 109T431 160L500 85Q468 41 413 15T285 -12ZM170 307H387V317Q387
354 375 381T340 423T283 439Q249 439 224 424T184 380T170 315V307ZM527 581L402 751L509 804L603 618L527 581Z" />
<glyph unicode="&#xe9;" horiz-adv-x="558" d="M285 -12Q208 -12 153 21T69 116T40 261Q40 344 68 405T151 500T281 534Q362 534 414 498T492 403T518 271V229H170V216Q170 159 202 124T298 89Q346 89 377 109T431 160L500 85Q468 41 413 15T285 -12ZM170 307H387V317Q387
354 375 381T340 423T283 439Q249 439 224 424T184 380T170 315V307ZM553 581L477 618L571 804L678 751L553 581Z" />
<glyph unicode="&#xea;" horiz-adv-x="558" d="M285 -12Q208 -12 153 21T69 116T40 261Q40 344 68 405T151 500T281 534Q362 534 414 498T492 403T518 271V229H170V216Q170 159 202 124T298 89Q346 89 377 109T431 160L500 85Q468 41 413 15T285 -12ZM170 307H387V317Q387
354 375 381T340 423T283 439Q249 439 224 424T184 380T170 315V307ZM420 582L357 631L482 785H598L723 631L660 582L540 698L420 582Z" />
<glyph unicode="&#xeb;" horiz-adv-x="558" d="M285 -12Q208 -12 153 21T69 116T40 261Q40 344 68 405T151 500T281 534Q362 534 414 498T492 403T518 271V229H170V216Q170 159 202 124T298 89Q346 89 377 109T431 160L500 85Q468 41 413 15T285 -12ZM170 307H387V317Q387
354 375 381T340 423T283 439Q249 439 224 424T184 380T170 315V307ZM644 606Q606 606 591 622T575 663V684Q575 708 590 724T644 741Q683 741 698 725T714 684V663Q714 639 699 623T644 606ZM436 606Q397 606 382 622T366 663V684Q366 708 381 724T436 741Q474
741 489 725T505 684V663Q505 639 490 623T436 606Z" />
<glyph unicode="&#xec;" horiz-adv-x="274" d="M74 0V522H200V0H74ZM124 581L-1 751L106 804L200 618L124 581Z" />
<glyph unicode="&#xed;" horiz-adv-x="274" d="M74 0V522H200V0H74ZM150 581L74 618L168 804L275 751L150 581Z" />
<glyph unicode="&#xee;" horiz-adv-x="274" d="M74 0V522H200V0H74ZM17 582L-46 631L79 785H195L320 631L257 582L137 698L17 582Z" />
<glyph unicode="&#xef;" horiz-adv-x="274" d="M74 0V522H200V0H74ZM241 606Q203 606 188 622T172 663V684Q172 708 187 724T241 741Q280 741 295 725T311 684V663Q311 639 296 623T241 606ZM33 606Q-6 606 -21 622T-37 663V684Q-37 708 -22 724T33 741Q71 741
86 725T102 684V663Q102 639 87 623T33 606Z" />
<glyph unicode="&#xf0;" d="M293 -12Q215 -12 159 20T73 112T43 251Q43 326 68 382T141 470T251 501Q305 501 341 475T399 403L405 406Q393 456 362 503T287 592L202 538L157 592L234 640Q199 669 161 694T84 740H276Q290 732 303 722T331 700L414 753L459 699L384
651Q430 604 465 547T519 421T538 276Q538 177 507 113T421 19T293 -12ZM291 84Q326 84 352 99T393 144T408 215V273Q408 314 394 343T353 388T291 404Q255 404 229 389T188 344T174 273V215Q174 174 188 145T228 100T291 84Z" />
<glyph unicode="&#xf1;" d="M74 0V522H200V435H205Q221 477 255 505T351 534Q431 534 474 481T518 330V0H393V317Q393 373 373 401T305 430Q278 430 254 421T215 393T200 346V0H74ZM626 859Q603 859 585 866T548 881Q525 891 508 897T473 903Q456 903 443 897T414
878L368 936Q385 961 411 979T476 997Q500 997 518 990T554 975Q577 964 594 958T629 952Q646 952 659 958T688 978L734 919Q717 894 691 877T626 859Z" />
<glyph unicode="&#xf2;" horiz-adv-x="563" d="M281 -12Q207 -12 153 21T70 116T40 261Q40 345 69 406T153 500T281 534Q356 534 410 501T493 406T523 261Q523 178 494 117T410 22T281 -12ZM281 90Q332 90 362 121T392 213V309Q392 370 362 401T281 432Q231 432
201 401T171 309V213Q171 153 201 122T281 90ZM524 836L399 1006L506 1059L600 873L524 836Z" />
<glyph unicode="&#xf3;" horiz-adv-x="563" d="M281 -12Q207 -12 153 21T70 116T40 261Q40 345 69 406T153 500T281 534Q356 534 410 501T493 406T523 261Q523 178 494 117T410 22T281 -12ZM281 90Q332 90 362 121T392 213V309Q392 370 362 401T281 432Q231 432
201 401T171 309V213Q171 153 201 122T281 90ZM550 836L474 873L568 1059L675 1006L550 836Z" />
<glyph unicode="&#xf4;" horiz-adv-x="563" d="M281 -12Q207 -12 153 21T70 116T40 261Q40 345 69 406T153 500T281 534Q356 534 410 501T493 406T523 261Q523 178 494 117T410 22T281 -12ZM281 90Q332 90 362 121T392 213V309Q392 370 362 401T281 432Q231 432
201 401T171 309V213Q171 153 201 122T281 90ZM417 837L354 886L479 1040H595L720 886L657 837L537 953L417 837Z" />
<glyph unicode="&#xf5;" horiz-adv-x="563" d="M281 -12Q207 -12 153 21T70 116T40 261Q40 345 69 406T153 500T281 534Q356 534 410 501T493 406T523 261Q523 178 494 117T410 22T281 -12ZM281 90Q332 90 362 121T392 213V309Q392 370 362 401T281 432Q231 432
201 401T171 309V213Q171 153 201 122T281 90ZM612 860Q589 860 571 867T534 882Q511 892 494 898T459 904Q442 904 429 898T400 879L354 937Q371 962 397 980T462 998Q486 998 504 991T540 976Q563 965 580 959T615 953Q632 953 645 959T674 979L720 920Q703 895
677 878T612 860Z" />
<glyph unicode="&#xf6;" horiz-adv-x="563" d="M281 -12Q207 -12 153 21T70 116T40 261Q40 345 69 406T153 500T281 534Q356 534 410 501T493 406T523 261Q523 178 494 117T410 22T281 -12ZM281 90Q332 90 362 121T392 213V309Q392 370 362 401T281 432Q231 432
201 401T171 309V213Q171 153 201 122T281 90ZM641 861Q603 861 588 877T572 918V939Q572 963 587 979T641 996Q680 996 695 980T711 939V918Q711 894 696 878T641 861ZM433 861Q394 861 379 877T363 918V939Q363 963 378 979T433 996Q471 996 486 980T502 939V918Q502
894 487 878T433 861Z" />
<glyph unicode="&#xf7;" horiz-adv-x="600" d="M67 255V356H532V255H67ZM300 36Q258 36 240 54T221 98V121Q221 147 239 165T300 183Q343 183 361 165T379 121V98Q379 73 361 55T300 36ZM300 427Q258 427 240 445T221 489V512Q221 537 239 555T300 574Q343 574
361 556T379 512V489Q379 463 361 445T300 427Z" />
<glyph unicode="&#xf8;" horiz-adv-x="571" d="M89 -47L21 5L88 88Q66 122 55 165T44 261Q44 345 73 406T157 500T285 534Q324 534 358 524T421 495L481 569L550 517L482 433Q504 400 515 356T527 261Q527 177 498 116T414 22T285 -12Q246 -12 212 -2T150 26L89
-47ZM285 84Q338 84 368 119T399 216V266Q399 284 398 301T394 333L210 110Q224 97 243 91T285 84ZM177 189L360 412Q346 425 327 431T285 438Q233 438 203 403T172 306V264Q172 244 173 226T177 189Z" />
<glyph unicode="&#xf9;" horiz-adv-x="586" d="M235 -12Q156 -12 112 41T68 192V522H193V205Q193 150 215 121T283 92Q309 92 332 101T371 129T386 176V522H512V0H386V87H382Q368 48 334 18T235 -12ZM533 581L408 751L515 804L609 618L533 581Z" />
<glyph unicode="&#xfa;" horiz-adv-x="586" d="M235 -12Q156 -12 112 41T68 192V522H193V205Q193 150 215 121T283 92Q309 92 332 101T371 129T386 176V522H512V0H386V87H382Q368 48 334 18T235 -12ZM559 581L483 618L577 804L684 751L559 581Z" />
<glyph unicode="&#xfb;" horiz-adv-x="586" d="M235 -12Q156 -12 112 41T68 192V522H193V205Q193 150 215 121T283 92Q309 92 332 101T371 129T386 176V522H512V0H386V87H382Q368 48 334 18T235 -12ZM426 582L363 631L488 785H604L729 631L666 582L546 698L426 582Z" />
<glyph unicode="&#xfc;" horiz-adv-x="586" d="M235 -12Q156 -12 112 41T68 192V522H193V205Q193 150 215 121T283 92Q309 92 332 101T371 129T386 176V522H512V0H386V87H382Q368 48 334 18T235 -12ZM650 606Q612 606 597 622T581 663V684Q581 708 596 724T650
741Q689 741 704 725T720 684V663Q720 639 705 623T650 606ZM442 606Q403 606 388 622T372 663V684Q372 708 387 724T442 741Q480 741 495 725T511 684V663Q511 639 496 623T442 606Z" />
<glyph unicode="&#xfd;" horiz-adv-x="522" d="M79 -200V-100H172L197 -25L10 522H134L227 242L260 112H266L301 242L394 522H513L301 -94Q289 -131 271 -154T224 -189T154 -200H79ZM532 581L456 618L550 804L657 751L532 581Z" />
<glyph unicode="&#xfe;" horiz-adv-x="599" d="M74 -200V740H200V435H204Q218 481 257 507T349 534Q415 534 460 502T529 409T553 261Q553 175 530 114T461 20T349 -12Q297 -12 258 15T204 87H200V-200H74ZM309 92Q359 92 390 126T422 216V306Q422 362 391 396T309
430Q278 430 253 420T214 390T200 346V178Q200 151 214 132T253 102T309 92Z" />
<glyph unicode="&#xff;" horiz-adv-x="522" d="M79 -200V-100H172L197 -25L10 522H134L227 242L260 112H266L301 242L394 522H513L301 -94Q289 -131 271 -154T224 -189T154 -200H79ZM623 606Q585 606 570 622T554 663V684Q554 708 569 724T623 741Q662 741 677
725T693 684V663Q693 639 678 623T623 606ZM415 606Q376 606 361 622T345 663V684Q345 708 360 724T415 741Q453 741 468 725T484 684V663Q484 639 469 623T415 606Z" />
<glyph unicode="&#x2013;" horiz-adv-x="588" d="M36 251V357H552V251H36Z" />
<glyph unicode="&#x2014;" horiz-adv-x="780" d="M36 251V357H744V251H36Z" />
<glyph unicode="&#x2018;" horiz-adv-x="291" d="M143 457Q102 457 84 476T65 524V543Q65 596 94 650T168 740H252Q220 710 199 680T166 612Q194 607 207 589T220 546V524Q220 495 202 476T143 457Z" />
<glyph unicode="&#x2019;" horiz-adv-x="291" d="M39 467Q71 497 92 527T125 595Q97 600 84 618T71 661V682Q71 712 89 731T148 750Q189 750 207 731T226 682V664Q226 612 197 557T123 467H39Z" />
<glyph unicode="&#x201a;" horiz-adv-x="294" d="M37 -117Q70 -86 92 -56T125 11Q96 17 83 35T70 78V98Q70 128 88 147T147 167Q189 167 206 148T224 98V78Q224 26 196 -27T123 -117H37Z" />
<glyph unicode="&#x201c;" horiz-adv-x="515" d="M367 457Q326 457 308 476T289 524V543Q289 596 318 650T392 740H476Q444 710 423 680T390 612Q418 607 431 589T444 546V524Q444 495 426 476T367 457ZM143 457Q102 457 84 476T65 524V543Q65 596 94 650T168
740H252Q220 710 199 680T166 612Q194 607 207 589T220 546V524Q220 495 202 476T143 457Z" />
<glyph unicode="&#x201d;" horiz-adv-x="515" d="M262 467Q294 497 316 527T349 595Q321 600 308 618T294 661V682Q294 712 313 731T372 750Q413 750 431 731T450 682V664Q450 612 421 557T347 467H262ZM39 467Q71 497 92 527T125 595Q97 600 84 618T71 661V682Q71
712 89 731T148 750Q189 750 207 731T226 682V664Q226 612 197 557T123 467H39Z" />
<glyph unicode="&#x201e;" horiz-adv-x="518" d="M261 -117Q293 -86 315 -56T348 11Q320 17 307 35T294 78V98Q294 128 312 147T371 167Q412 167 430 148T448 98V78Q448 26 420 -27T347 -117H261ZM37 -117Q70 -86 92 -56T125 11Q96 17 83 35T70 78V98Q70 128 88
147T147 167Q189 167 206 148T224 98V78Q224 26 196 -27T123 -117H37Z" />
<glyph unicode="&#x2022;" horiz-adv-x="419" d="M209 162Q132 162 100 197T67 284V317Q67 369 99 404T209 439Q287 439 319 404T352 317V284Q352 232 320 197T209 162Z" />
<glyph unicode="&#x2039;" horiz-adv-x="313" d="M225 59L37 221V331L225 493L262 413L136 276L262 139L225 59Z" />
<glyph unicode="&#x203a;" horiz-adv-x="313" d="M87 59L51 139L176 276L51 413L87 493L275 331V221L87 59Z" />
</font>
</defs>
</svg>
